{
.appVersion = "3151";
DisplayStrings = (

glyphs = (
{
glyphname = A;
lastChange = "2023-04-23 02:14:12 +0000";
layers = (
{
layerId = "69FA6F11-E000-4957-8B5E-754D211BB72B";
paths = (
{
closed = 1;
nodes = (
"199 496 OFFCURVE",
"183 437 OFFCURVE",
"183 351 CURVE",
"225 328 OFFCURVE",
"258 323 OFFCURVE",
"267 287 CURVE",
"273 323 OFFCURVE",
"255 340 OFFCURVE",
"239 508 CURVE",
"238 515 OFFCURVE",
"216 517 OFFCURVE",
"213 526 CURVE"
);
},
{
closed = 1;
nodes = (
"138 657 OFFCURVE",
"228 647 OFFCURVE",
"293 655 CURVE",
"305 656 OFFCURVE",
"317 630 OFFCURVE",
"349 581 CURVE",
"379 535 OFFCURVE",
"402 308 OFFCURVE",
"406 -4 CURVE",
"386 -8 OFFCURVE",
"352 -10 OFFCURVE",
"333 -4 CURVE",
"326 1 OFFCURVE",
"319 13 OFFCURVE",
"298 50 CURVE",
"290 63 OFFCURVE",
"279 30 OFFCURVE",
"268 195 CURVE",
"252 220 OFFCURVE",
"172 245 OFFCURVE",
"140 231 CURVE",
"122 212 OFFCURVE",
"112 113 OFFCURVE",
"117 0 CURVE",
"89 -5 OFFCURVE",
"8 -5 OFFCURVE",
"21 10 CURVE",
"33 98 OFFCURVE",
"37 288 OFFCURVE",
"32 390 CURVE",
"51 425 OFFCURVE",
"68 513 OFFCURVE",
"80 624 CURVE",
"85 633 OFFCURVE",
"85 647 OFFCURVE",
"105 655 CURVE"
);
}
);
width = 426;
}
);
unicode = "0041,0061";
},
{
glyphname = B;
lastChange = "2023-04-18 20:41:03 +0000";
layers = (
{
layerId = "69FA6F11-E000-4957-8B5E-754D211BB72B";
paths = (
{
closed = 1;
nodes = (
"331 390 OFFCURVE",
"390 382 OFFCURVE",
"422 428 CURVE",
"437 462 OFFCURVE",
"435 519 OFFCURVE",
"392 532 CURVE",
"333 556 OFFCURVE",
"265 539 OFFCURVE",
"201 547 CURVE",
"193 547 OFFCURVE",
"173 558 OFFCURVE",
"170 548 CURVE",
"172 521 OFFCURVE",
"172 492 OFFCURVE",
"169 465 CURVE",
"168 450 OFFCURVE",
"191 465 OFFCURVE",
"198 466 CURVE",
"203 472 OFFCURVE",
"187 480 OFFCURVE",
"203 484 CURVE",
"213 488 OFFCURVE",
"225 450 OFFCURVE",
"229 442 CURVE",
"236 423 OFFCURVE",
"238 428 OFFCURVE",
"231 411 CURVE",
"231 400 OFFCURVE",
"218 399 OFFCURVE",
"210 396 CURVE",
"195 387 OFFCURVE",
"252 391 OFFCURVE",
"257 391 CURVE",
"252 412 OFFCURVE",
"285 406 OFFCURVE",
"282 389 CURVE"
);
},
{
closed = 1;
nodes = (
"393 153 OFFCURVE",
"444 140 OFFCURVE",
"447 160 CURVE",
"455 193 OFFCURVE",
"450 238 OFFCURVE",
"418 256 CURVE",
"413 256 OFFCURVE",
"407 248 OFFCURVE",
"403 253 CURVE",
"400 258 OFFCURVE",
"396 262 OFFCURVE",
"398 268 CURVE",
"393 277 OFFCURVE",
"393 271 OFFCURVE",
"387 269 CURVE",
"381 265 OFFCURVE",
"365 260 OFFCURVE",
"366 272 CURVE",
"367 277 OFFCURVE",
"291 262 OFFCURVE",
"282 272 CURVE",
"276 275 OFFCURVE",
"270 266 OFFCURVE",
"264 268 CURVE",
"223 265 OFFCURVE",
"242 211 OFFCURVE",
"187 265 CURVE",
"183 281 OFFCURVE",
"209 285 OFFCURVE",
"171 286 CURVE",
"158 285 OFFCURVE",
"169 270 OFFCURVE",
"166 263 CURVE",
"165 244 OFFCURVE",
"165 225 OFFCURVE",
"166 207 CURVE",
"174 203 OFFCURVE",
"169 191 OFFCURVE",
"170 184 CURVE",
"167 172 OFFCURVE",
"184 171 OFFCURVE",
"182 158 CURVE",
"187 134 OFFCURVE",
"171 143 OFFCURVE",
"173 125 CURVE",
"172 116 OFFCURVE",
"157 130 OFFCURVE",
"164 101 CURVE",
"168 98 OFFCURVE",
"205 97 OFFCURVE",
"205 104 CURVE",
"205 115 OFFCURVE",
"226 114 OFFCURVE",
"234 120 CURVE",
"241 121 OFFCURVE",
"238 110 OFFCURVE",
"249 108 CURVE",
"259 102 OFFCURVE",
"272 100 OFFCURVE",
"282 107 CURVE",
"286 112 OFFCURVE",
"299 110 OFFCURVE",
"302 105 CURVE",
"305 99 OFFCURVE",
"315 107 OFFCURVE",
"322 103 CURVE",
"321 112 OFFCURVE",
"324 125 OFFCURVE",
"336 120 CURVE",
"343 127 OFFCURVE",
"353 130 OFFCURVE",
"362 135 CURVE",
"376 139 OFFCURVE",
"376 120 OFFCURVE",
"390 115 CURVE"
);
},
{
closed = 1;
nodes = (
"245 -11 OFFCURVE",
"224 -3 OFFCURVE",
"209 -10 CURVE",
"188 -24 OFFCURVE",
"160 -13 OFFCURVE",
"139 -6 CURVE",
"107 -7 OFFCURVE",
"73 -5 OFFCURVE",
"39 -4 CURVE",
"35 -4 OFFCURVE",
"34 -2 OFFCURVE",
"35 2 CURVE",
"35 61 OFFCURVE",
"43 125 OFFCURVE",
"36 183 CURVE",
"22 193 OFFCURVE",
"25 179 OFFCURVE",
"17 201 CURVE",
"11 215 OFFCURVE",
"40 229 OFFCURVE",
"41 241 CURVE",
"40 257 OFFCURVE",
"45 275 OFFCURVE",
"39 290 CURVE",
"36 295 OFFCURVE",
"27 301 OFFCURVE",
"33 306 CURVE",
"51 317 OFFCURVE",
"41 340 OFFCURVE",
"44 358 CURVE",
"43 377 OFFCURVE",
"48 398 OFFCURVE",
"39 415 CURVE",
"54 488 OFFCURVE",
"47 570 OFFCURVE",
"51 647 CURVE",
"112 664 OFFCURVE",
"193 636 OFFCURVE",
"256 658 CURVE",
"303 670 OFFCURVE",
"257 644 OFFCURVE",
"331 649 CURVE",
"418 653 OFFCURVE",
"504 634 OFFCURVE",
"543 548 CURVE",
"556 532 OFFCURVE",
"544 512 OFFCURVE",
"552 496 CURVE",
"559 420 OFFCURVE",
"493 381 OFFCURVE",
"520 368 CURVE",
"522 366 OFFCURVE",
"522 365 OFFCURVE",
"520 362 CURVE",
"505 351 OFFCURVE",
"531 335 OFFCURVE",
"516 328 CURVE",
"487 321 OFFCURVE",
"528 308 OFFCURVE",
"535 299 CURVE",
"539 289 OFFCURVE",
"552 286 OFFCURVE",
"553 275 CURVE",
"607 196 OFFCURVE",
"565 169 OFFCURVE",
"598 159 CURVE",
"620 154 OFFCURVE",
"612 132 OFFCURVE",
"611 115 CURVE",
"609 105 OFFCURVE",
"597 113 OFFCURVE",
"590 111 CURVE",
"593 97 OFFCURVE",
"578 100 OFFCURVE",
"569 98 CURVE",
"559 88 OFFCURVE",
"580 65 OFFCURVE",
"557 63 CURVE",
"556 66 OFFCURVE",
"556 70 OFFCURVE",
"552 67 CURVE",
"534 46 OFFCURVE",
"464 7 OFFCURVE",
"445 -28 CURVE",
"444 -35 OFFCURVE",
"432 -34 OFFCURVE",
"427 -37 CURVE",
"409 -43 OFFCURVE",
"416 -14 OFFCURVE",
"404 -11 CURVE",
"399 -7 OFFCURVE",
"346 -2 OFFCURVE",
"359 -17 CURVE",
"330 -18 OFFCURVE",
"348 -1 OFFCURVE",
"298 -9 CURVE",
"291 -7 OFFCURVE",
"293 -17 OFFCURVE",
"290 -21 CURVE",
"282 -29 OFFCURVE",
"263 -20 OFFCURVE",
"262 -8 CURVE"
);
}
);
width = 597;
}
);
unicode = "0042,0062";
},
{
glyphname = C;
lastChange = "2023-04-23 02:18:00 +0000";
layers = (
{
layerId = "69FA6F11-E000-4957-8B5E-754D211BB72B";
paths = (
{
closed = 1;
nodes = (
"286 683 LINE",
"297 683 OFFCURVE",
"306 659 OFFCURVE",
"334 623 CURVE",
"358 592 OFFCURVE",
"386 575 OFFCURVE",
"379 516 CURVE",
"377 499 OFFCURVE",
"356 494 OFFCURVE",
"338 464 CURVE",
"316 446 OFFCURVE",
"294 415 OFFCURVE",
"264 400 CURVE",
"258 404 OFFCURVE",
"247 409 OFFCURVE",
"232 442 CURVE",
"225 457 OFFCURVE",
"220 470 OFFCURVE",
"218 509 CURVE",
"217 525 OFFCURVE",
"214 543 OFFCURVE",
"189 557 CURVE",
"167 554 OFFCURVE",
"151 535 OFFCURVE",
"143 490 CURVE",
"137 458 OFFCURVE",
"136 428 OFFCURVE",
"139 352 CURVE",
"140 315 OFFCURVE",
"139 283 OFFCURVE",
"155 212 CURVE",
"162 176 OFFCURVE",
"177 161 OFFCURVE",
"205 137 CURVE",
"218 137 OFFCURVE",
"234 145 OFFCURVE",
"240 174 CURVE",
"245 200 OFFCURVE",
"249 212 OFFCURVE",
"256 240 CURVE",
"263 250 OFFCURVE",
"293 258 OFFCURVE",
"306 260 CURVE",
"319 255 OFFCURVE",
"347 236 OFFCURVE",
"357 202 CURVE",
"363 183 OFFCURVE",
"367 161 OFFCURVE",
"367 110 CURVE",
"368 84 OFFCURVE",
"358 54 OFFCURVE",
"344 24 CURVE",
"333 18 OFFCURVE",
"211 18 OFFCURVE",
"301 21 CURVE",
"287 22 OFFCURVE",
"204 9 OFFCURVE",
"239 0 CURVE",
"219 -5 OFFCURVE",
"190 -10 OFFCURVE",
"171 -13 CURVE",
"151 -17 OFFCURVE",
"107 -5 OFFCURVE",
"87 21 CURVE",
"70 43 OFFCURVE",
"53 83 OFFCURVE",
"45 115 CURVE",
"33 162 OFFCURVE",
"15 183 OFFCURVE",
"22 258 CURVE",
"25 285 OFFCURVE",
"29 325 OFFCURVE",
"50 379 CURVE",
"59 402 OFFCURVE",
"71 422 OFFCURVE",
"91 473 CURVE",
"101 499 OFFCURVE",
"118 519 OFFCURVE",
"141 573 CURVE",
"160 594 OFFCURVE",
"181 619 OFFCURVE",
"210 646 CURVE",
"253 650 OFFCURVE",
"310 652 OFFCURVE",
"348 653 CURVE"
);
}
);
width = 400;
}
);
unicode = "0043,0063";
},
{
glyphname = D;
lastChange = "2023-04-18 19:56:38 +0000";
layers = (
{
layerId = "69FA6F11-E000-4957-8B5E-754D211BB72B";
paths = (
{
closed = 1;
nodes = (
"446 319 CURVE",
"447 434 OFFCURVE",
"427 543 OFFCURVE",
"288 540 CURVE",
"258 540 OFFCURVE",
"229 539 OFFCURVE",
"199 540 CURVE",
"191 540 OFFCURVE",
"169 548 OFFCURVE",
"167 539 CURVE",
"166 533 OFFCURVE",
"172 529 OFFCURVE",
"172 522 CURVE",
"173 439 OFFCURVE",
"173 357 OFFCURVE",
"176 274 CURVE",
"174 227 OFFCURVE",
"180 179 OFFCURVE",
"176 132 CURVE",
"177 126 OFFCURVE",
"169 107 OFFCURVE",
"178 107 CURVE",
"208 109 OFFCURVE",
"238 110 OFFCURVE",
"267 108 CURVE",
"271 108 OFFCURVE",
"273 104 OFFCURVE",
"277 106 CURVE",
"283 108 OFFCURVE",
"290 106 OFFCURVE",
"296 107 CURVE",
"325 108 OFFCURVE",
"354 112 OFFCURVE",
"380 126 CURVE",
"443 162 OFFCURVE",
"443 255 OFFCURVE"
);
},
{
closed = 1;
nodes = (
"596 168 OFFCURVE",
"522 -6 OFFCURVE",
"293 1 CURVE",
"215 -3 OFFCURVE",
"135 -1 OFFCURVE",
"56 -3 CURVE",
"52 -3 OFFCURVE",
"47 -3 OFFCURVE",
"48 3 CURVE",
"48 15 OFFCURVE",
"47 27 OFFCURVE",
"47 40 CURVE",
"50 88 OFFCURVE",
"47 137 OFFCURVE",
"46 185 CURVE",
"45 240 OFFCURVE",
"45 295 OFFCURVE",
"44 350 CURVE",
"42 445 OFFCURVE",
"43 537 OFFCURVE",
"40 631 CURVE",
"41 638 OFFCURVE",
"38 650 OFFCURVE",
"48 649 CURVE",
"83 651 OFFCURVE",
"119 651 OFFCURVE",
"154 651 CURVE",
"244 650 OFFCURVE",
"338 668 OFFCURVE",
"424 636 CURVE",
"528 593 OFFCURVE",
"573 476 OFFCURVE",
"578 371 CURVE"
);
}
);
width = 609;
}
);
unicode = "0044,0064";
},
{
glyphname = E;
lastChange = "2023-04-23 02:19:39 +0000";
layers = (
{
layerId = "69FA6F11-E000-4957-8B5E-754D211BB72B";
paths = (
{
closed = 1;
nodes = (
"20 650 LINE",
"111 650 OFFCURVE",
"201 650 OFFCURVE",
"338 650 CURVE",
"345 642 OFFCURVE",
"353 626 OFFCURVE",
"341 587 CURVE",
"333 560 OFFCURVE",
"297 536 OFFCURVE",
"292 509 CURVE",
"241 504 OFFCURVE",
"189 499 OFFCURVE",
"153 490 CURVE",
"139 481 OFFCURVE",
"138 454 OFFCURVE",
"134 452 CURVE",
"133 457 OFFCURVE",
"130 460 OFFCURVE",
"126 474 CURVE",
"122 479 OFFCURVE",
"121 481 OFFCURVE",
"120 466 CURVE",
"120 454 OFFCURVE",
"121 408 OFFCURVE",
"127 398 CURVE",
"149 411 OFFCURVE",
"238 418 OFFCURVE",
"293 444 CURVE",
"311 432 OFFCURVE",
"314 410 OFFCURVE",
"327 350 CURVE",
"333 322 OFFCURVE",
"336 311 OFFCURVE",
"340 278 CURVE",
"293 272 OFFCURVE",
"238 267 OFFCURVE",
"264 277 CURVE",
"284 286 OFFCURVE",
"306 283 OFFCURVE",
"304 277 CURVE",
"295 271 OFFCURVE",
"218 263 OFFCURVE",
"198 247 CURVE",
"186 237 OFFCURVE",
"173 224 OFFCURVE",
"177 185 CURVE",
"179 166 OFFCURVE",
"187 124 OFFCURVE",
"196 115 CURVE",
"253 136 OFFCURVE",
"327 155 OFFCURVE",
"362 165 CURVE",
"376 155 OFFCURVE",
"397 132 OFFCURVE",
"392 84 CURVE",
"389 58 OFFCURVE",
"353 36 OFFCURVE",
"332 9 CURVE",
"256 2 OFFCURVE",
"163 0 OFFCURVE",
"79 -1 CURVE",
"74 -1 OFFCURVE",
"65 232 OFFCURVE",
"67 579 CURVE"
);
}
);
width = 413;
}
);
unicode = "0045,0065";
},
{
glyphname = F;
lastChange = "2023-04-18 21:34:58 +0000";
layers = (
{
layerId = "69FA6F11-E000-4957-8B5E-754D211BB72B";
paths = (
{
closed = 1;
nodes = (
"261 417 OFFCURVE",
"253 423 OFFCURVE",
"241 421 CURVE",
"248 433 OFFCURVE",
"248 452 OFFCURVE",
"264 439 CURVE",
"269 435 OFFCURVE",
"280 434 OFFCURVE",
"283 428 CURVE",
"285 417 OFFCURVE",
"268 423 OFFCURVE",
"270 411 CURVE"
);
},
{
closed = 1;
nodes = (
"225 541 OFFCURVE",
"234 541 OFFCURVE",
"244 540 CURVE",
"245 535 OFFCURVE",
"240 532 OFFCURVE",
"240 527 CURVE",
"223 526 OFFCURVE",
"230 529 OFFCURVE",
"216 539 CURVE"
);
},
{
closed = 1;
nodes = (
"194 379 OFFCURVE",
"210 393 OFFCURVE",
"218 401 CURVE",
"219 394 OFFCURVE",
"219 387 OFFCURVE",
"217 380 CURVE"
);
},
{
closed = 1;
nodes = (
"502 659 OFFCURVE",
"487 650 OFFCURVE",
"479 653 CURVE",
"356 653 OFFCURVE",
"232 649 OFFCURVE",
"109 648 CURVE",
"101 647 OFFCURVE",
"59 652 OFFCURVE",
"59 644 CURVE",
"59 597 OFFCURVE",
"62 550 OFFCURVE",
"61 503 CURVE",
"53 500 OFFCURVE",
"51 493 OFFCURVE",
"44 491 CURVE",
"39 485 OFFCURVE",
"52 476 OFFCURVE",
"58 481 CURVE",
"58 477 OFFCURVE",
"58 473 OFFCURVE",
"62 473 CURVE",
"62 451 OFFCURVE",
"63 429 OFFCURVE",
"64 407 CURVE",
"66 395 OFFCURVE",
"61 397 OFFCURVE",
"54 391 CURVE",
"45 381 OFFCURVE",
"46 355 OFFCURVE",
"64 358 CURVE",
"67 352 OFFCURVE",
"63 342 OFFCURVE",
"65 335 CURVE",
"69 316 OFFCURVE",
"43 340 OFFCURVE",
"41 314 CURVE",
"40 308 OFFCURVE",
"36 302 OFFCURVE",
"39 295 CURVE",
"34 255 OFFCURVE",
"70 291 OFFCURVE",
"63 258 CURVE",
"63 250 OFFCURVE",
"55 260 OFFCURVE",
"51 254 CURVE",
"45 249 OFFCURVE",
"33 258 OFFCURVE",
"29 250 CURVE",
"15 229 OFFCURVE",
"12 201 OFFCURVE",
"19 177 CURVE",
"22 169 OFFCURVE",
"18 157 OFFCURVE",
"27 151 CURVE",
"31 146 OFFCURVE",
"26 136 OFFCURVE",
"34 134 CURVE",
"36 134 OFFCURVE",
"37 132 OFFCURVE",
"35 131 CURVE",
"21 103 OFFCURVE",
"44 85 OFFCURVE",
"0 61 CURVE",
"12 -52 OFFCURVE",
"11 4 OFFCURVE",
"65 -30 CURVE",
"74 -36 OFFCURVE",
"83 -21 OFFCURVE",
"81 -40 CURVE",
"84 -70 OFFCURVE",
"128 -71 OFFCURVE",
"151 -77 CURVE",
"180 -59 OFFCURVE",
"214 -52 OFFCURVE",
"248 -50 CURVE",
"250 -47 OFFCURVE",
"253 -45 OFFCURVE",
"256 -43 CURVE",
"255 -10 OFFCURVE",
"266 22 OFFCURVE",
"266 55 CURVE",
"249 79 OFFCURVE",
"255 85 OFFCURVE",
"211 83 CURVE",
"207 83 OFFCURVE",
"204 85 OFFCURVE",
"203 89 CURVE",
"198 96 OFFCURVE",
"210 98 OFFCURVE",
"207 106 CURVE",
"211 127 OFFCURVE",
"191 139 OFFCURVE",
"193 160 CURVE",
"195 169 OFFCURVE",
"213 163 OFFCURVE",
"217 173 CURVE",
"218 183 OFFCURVE",
"233 206 OFFCURVE",
"225 213 CURVE",
"220 219 OFFCURVE",
"200 225 OFFCURVE",
"213 232 CURVE",
"229 240 OFFCURVE",
"226 252 OFFCURVE",
"221 266 CURVE",
"217 275 OFFCURVE",
"261 268 OFFCURVE",
"268 270 CURVE",
"262 266 OFFCURVE",
"262 261 OFFCURVE",
"264 255 CURVE",
"272 252 OFFCURVE",
"281 255 OFFCURVE",
"289 257 CURVE",
"305 262 OFFCURVE",
"303 251 OFFCURVE",
"321 257 CURVE",
"338 271 OFFCURVE",
"367 269 OFFCURVE",
"386 261 CURVE",
"398 249 OFFCURVE",
"413 255 OFFCURVE",
"428 256 CURVE",
"437 262 OFFCURVE",
"446 269 OFFCURVE",
"451 279 CURVE",
"452 282 OFFCURVE",
"454 284 OFFCURVE",
"456 287 CURVE",
"457 291 OFFCURVE",
"459 296 OFFCURVE",
"464 298 CURVE",
"465 299 OFFCURVE",
"465 301 OFFCURVE",
"466 302 CURVE",
"466 313 OFFCURVE",
"477 321 OFFCURVE",
"479 332 CURVE",
"478 340 OFFCURVE",
"489 349 OFFCURVE",
"479 354 CURVE",
"474 360 OFFCURVE",
"483 371 OFFCURVE",
"481 379 CURVE",
"480 388 OFFCURVE",
"460 392 OFFCURVE",
"465 402 CURVE",
"493 424 OFFCURVE",
"469 441 OFFCURVE",
"451 458 CURVE",
"446 464 OFFCURVE",
"442 453 OFFCURVE",
"437 457 CURVE",
"403 495 OFFCURVE",
"395 465 OFFCURVE",
"374 436 CURVE",
"366 430 OFFCURVE",
"367 416 OFFCURVE",
"356 420 CURVE",
"349 425 OFFCURVE",
"347 435 OFFCURVE",
"336 429 CURVE",
"334 429 OFFCURVE",
"333 429 OFFCURVE",
"333 431 CURVE",
"332 436 OFFCURVE",
"327 435 OFFCURVE",
"323 438 CURVE",
"318 441 OFFCURVE",
"314 433 OFFCURVE",
"310 439 CURVE",
"321 454 OFFCURVE",
"302 465 OFFCURVE",
"288 465 CURVE",
"315 491 OFFCURVE",
"285 465 OFFCURVE",
"297 507 CURVE",
"303 518 OFFCURVE",
"286 523 OFFCURVE",
"288 532 CURVE",
"288 546 OFFCURVE",
"306 540 OFFCURVE",
"317 541 CURVE",
"310 522 OFFCURVE",
"310 514 OFFCURVE",
"325 503 CURVE",
"325 498 OFFCURVE",
"332 491 OFFCURVE",
"328 486 CURVE",
"321 477 OFFCURVE",
"343 457 OFFCURVE",
"352 476 CURVE",
"354 475 OFFCURVE",
"356 475 OFFCURVE",
"357 472 CURVE",
"361 466 OFFCURVE",
"370 465 OFFCURVE",
"377 462 CURVE",
"379 460 OFFCURVE",
"381 463 OFFCURVE",
"383 465 CURVE",
"387 475 OFFCURVE",
"399 477 OFFCURVE",
"407 483 CURVE",
"416 491 OFFCURVE",
"401 503 OFFCURVE",
"398 512 CURVE",
"396 516 OFFCURVE",
"395 517 OFFCURVE",
"390 515 CURVE",
"381 516 OFFCURVE",
"379 530 OFFCURVE",
"373 536 CURVE",
"365 546 OFFCURVE",
"401 540 OFFCURVE",
"408 542 CURVE",
"434 543 OFFCURVE",
"461 542 OFFCURVE",
"487 545 CURVE",
"493 545 OFFCURVE",
"503 542 OFFCURVE",
"504 549 CURVE",
"504 583 OFFCURVE",
"507 616 OFFCURVE",
"504 649 CURVE"
);
}
);
width = 529;
}
);
unicode = "0046,0066";
},
{
glyphname = G;
lastChange = "2023-04-23 02:25:39 +0000";
layers = (
{
layerId = "69FA6F11-E000-4957-8B5E-754D211BB72B";
paths = (
{
closed = 1;
nodes = (
"314 651 OFFCURVE",
"311 633 OFFCURVE",
"341 599 CURVE",
"366 572 OFFCURVE",
"376 558 OFFCURVE",
"387 512 CURVE",
"391 494 OFFCURVE",
"398 483 OFFCURVE",
"393 439 CURVE",
"391 420 OFFCURVE",
"289 356 OFFCURVE",
"232 279 CURVE",
"224 268 OFFCURVE",
"208 259 OFFCURVE",
"190 241 CURVE",
"178 228 OFFCURVE",
"167 214 OFFCURVE",
"160 183 CURVE",
"156 167 OFFCURVE",
"150 156 OFFCURVE",
"167 125 CURVE",
"178 105 OFFCURVE",
"216 104 OFFCURVE",
"214 96 CURVE",
"224 97 OFFCURVE",
"235 101 OFFCURVE",
"241 117 CURVE",
"244 126 OFFCURVE",
"246 141 OFFCURVE",
"250 173 CURVE",
"252 193 OFFCURVE",
"236 201 OFFCURVE",
"232 216 CURVE",
"218 231 OFFCURVE",
"208 254 OFFCURVE",
"206 291 CURVE",
"205 319 OFFCURVE",
"314 316 OFFCURVE",
"347 342 CURVE",
"366 331 OFFCURVE",
"389 318 OFFCURVE",
"381 273 CURVE",
"379 258 OFFCURVE",
"371 242 OFFCURVE",
"358 194 CURVE",
"352 170 OFFCURVE",
"348 147 OFFCURVE",
"339 97 CURVE",
"334 71 OFFCURVE",
"325 45 OFFCURVE",
"319 17 CURVE",
"310 11 OFFCURVE",
"301 9 OFFCURVE",
"287 6 CURVE",
"272 4 OFFCURVE",
"220 8 OFFCURVE",
"210 2 CURVE",
"199 -1 OFFCURVE",
"157 -7 OFFCURVE",
"140 -10 CURVE",
"123 -12 OFFCURVE",
"87 7 OFFCURVE",
"67 36 CURVE",
"55 55 OFFCURVE",
"50 74 OFFCURVE",
"41 121 CURVE",
"34 162 OFFCURVE",
"18 187 OFFCURVE",
"20 254 CURVE",
"21 275 OFFCURVE",
"24 308 OFFCURVE",
"42 358 CURVE",
"50 381 OFFCURVE",
"59 392 OFFCURVE",
"75 440 CURVE",
"82 460 OFFCURVE",
"93 493 OFFCURVE",
"111 532 CURVE",
"130 547 OFFCURVE",
"143 570 OFFCURVE",
"166 592 CURVE",
"206 598 OFFCURVE",
"235 660 OFFCURVE",
"290 657 CURVE"
);
}
);
width = 415;
}
);
unicode = "0047,0067";
},
{
glyphname = H;
lastChange = "2023-04-26 16:59:37 +0000";
layers = (
{
layerId = "69FA6F11-E000-4957-8B5E-754D211BB72B";
paths = (
{
closed = 1;
nodes = (
"600 123 OFFCURVE",
"590 128 OFFCURVE",
"581 134 CURVE",
"575 136 OFFCURVE",
"580 128 OFFCURVE",
"575 127 CURVE",
"560 112 OFFCURVE",
"567 143 OFFCURVE",
"565 151 CURVE",
"565 156 OFFCURVE",
"571 158 OFFCURVE",
"574 163 CURVE",
"575 170 OFFCURVE",
"585 173 OFFCURVE",
"584 181 CURVE",
"581 190 OFFCURVE",
"585 213 OFFCURVE",
"579 218 CURVE",
"574 219 OFFCURVE",
"575 225 OFFCURVE",
"571 226 CURVE",
"567 227 OFFCURVE",
"563 228 OFFCURVE",
"564 233 CURVE",
"564 288 OFFCURVE",
"564 344 OFFCURVE",
"562 399 CURVE",
"565 432 OFFCURVE",
"557 467 OFFCURVE",
"566 499 CURVE",
"568 507 OFFCURVE",
"561 507 OFFCURVE",
"562 515 CURVE",
"559 526 OFFCURVE",
"564 539 OFFCURVE",
"561 550 CURVE",
"561 573 OFFCURVE",
"561 596 OFFCURVE",
"561 618 CURVE",
"565 630 OFFCURVE",
"569 643 OFFCURVE",
"563 655 CURVE",
"560 659 OFFCURVE",
"554 660 OFFCURVE",
"549 660 CURVE",
"544 659 OFFCURVE",
"538 661 OFFCURVE",
"537 667 CURVE",
"536 675 OFFCURVE",
"533 684 OFFCURVE",
"528 691 CURVE",
"525 699 OFFCURVE",
"513 692 OFFCURVE",
"507 690 CURVE",
"494 685 OFFCURVE",
"491 690 OFFCURVE",
"491 675 CURVE",
"486 679 OFFCURVE",
"487 685 OFFCURVE",
"481 687 CURVE",
"478 676 OFFCURVE",
"462 692 OFFCURVE",
"463 675 CURVE",
"458 668 OFFCURVE",
"445 676 OFFCURVE",
"438 671 CURVE",
"434 667 OFFCURVE",
"433 674 OFFCURVE",
"428 673 CURVE",
"409 661 OFFCURVE",
"391 648 OFFCURVE",
"403 624 CURVE",
"405 617 OFFCURVE",
"398 610 OFFCURVE",
"401 604 CURVE",
"405 599 OFFCURVE",
"403 589 OFFCURVE",
"409 586 CURVE",
"413 585 OFFCURVE",
"412 582 OFFCURVE",
"409 580 CURVE",
"391 572 OFFCURVE",
"397 564 OFFCURVE",
"401 549 CURVE",
"402 543 OFFCURVE",
"394 540 OFFCURVE",
"391 536 CURVE",
"381 525 OFFCURVE",
"411 521 OFFCURVE",
"394 509 CURVE",
"392 507 OFFCURVE",
"392 504 OFFCURVE",
"393 502 CURVE",
"396 497 OFFCURVE",
"404 493 OFFCURVE",
"401 487 CURVE",
"398 483 OFFCURVE",
"403 479 OFFCURVE",
"400 475 CURVE",
"397 462 OFFCURVE",
"404 446 OFFCURVE",
"406 432 CURVE",
"393 432 OFFCURVE",
"378 437 OFFCURVE",
"374 420 CURVE",
"367 426 OFFCURVE",
"359 426 OFFCURVE",
"350 427 CURVE",
"339 427 OFFCURVE",
"337 383 OFFCURVE",
"324 404 CURVE",
"321 409 OFFCURVE",
"317 421 OFFCURVE",
"309 417 CURVE",
"300 412 OFFCURVE",
"301 411 OFFCURVE",
"305 402 CURVE",
"307 395 OFFCURVE",
"289 400 OFFCURVE",
"283 398 CURVE",
"288 407 OFFCURVE",
"282 414 OFFCURVE",
"278 421 CURVE",
"270 431 OFFCURVE",
"266 446 OFFCURVE",
"252 447 CURVE",
"241 447 OFFCURVE",
"232 437 OFFCURVE",
"223 433 CURVE",
"209 426 OFFCURVE",
"202 414 OFFCURVE",
"195 401 CURVE",
"192 395 OFFCURVE",
"170 391 OFFCURVE",
"173 402 CURVE",
"173 427 OFFCURVE",
"173 452 OFFCURVE",
"173 477 CURVE",
"171 492 OFFCURVE",
"173 507 OFFCURVE",
"173 522 CURVE",
"173 526 OFFCURVE",
"171 529 OFFCURVE",
"174 532 CURVE",
"182 539 OFFCURVE",
"179 539 OFFCURVE",
"178 547 CURVE",
"176 575 OFFCURVE",
"178 583 OFFCURVE",
"209 599 CURVE",
"206 609 OFFCURVE",
"222 602 OFFCURVE",
"213 617 CURVE",
"196 638 OFFCURVE",
"198 640 OFFCURVE",
"172 627 CURVE",
"172 640 OFFCURVE",
"178 656 OFFCURVE",
"159 653 CURVE",
"153 654 OFFCURVE",
"147 655 OFFCURVE",
"142 653 CURVE",
"119 651 OFFCURVE",
"96 654 OFFCURVE",
"75 651 CURVE",
"63 649 OFFCURVE",
"45 654 OFFCURVE",
"47 637 CURVE",
"44 629 OFFCURVE",
"46 620 OFFCURVE",
"48 612 CURVE",
"48 599 OFFCURVE",
"48 586 OFFCURVE",
"48 573 CURVE",
"47 564 OFFCURVE",
"37 564 OFFCURVE",
"30 563 CURVE",
"19 561 OFFCURVE",
"23 548 OFFCURVE",
"20 541 CURVE",
"18 532 OFFCURVE",
"30 528 OFFCURVE",
"33 520 CURVE",
"37 516 OFFCURVE",
"40 512 OFFCURVE",
"45 510 CURVE",
"47 510 OFFCURVE",
"48 508 OFFCURVE",
"48 507 CURVE",
"49 465 OFFCURVE",
"48 424 OFFCURVE",
"48 382 CURVE",
"48 371 OFFCURVE",
"42 363 OFFCURVE",
"38 353 CURVE",
"36 346 OFFCURVE",
"48 345 OFFCURVE",
"48 339 CURVE",
"49 313 OFFCURVE",
"50 287 OFFCURVE",
"49 261 CURVE",
"51 193 OFFCURVE",
"51 126 OFFCURVE",
"51 59 CURVE",
"52 40 OFFCURVE",
"51 21 OFFCURVE",
"53 3 CURVE",
"53 -5 OFFCURVE",
"59 -1 OFFCURVE",
"64 -1 CURVE",
"76 -6 OFFCURVE",
"89 -4 OFFCURVE",
"102 -3 CURVE",
"118 -1 OFFCURVE",
"138 -9 OFFCURVE",
"151 2 CURVE",
"158 8 OFFCURVE",
"161 -4 OFFCURVE",
"169 -2 CURVE",
"173 -2 OFFCURVE",
"177 -3 OFFCURVE",
"176 2 CURVE",
"176 13 OFFCURVE",
"175 23 OFFCURVE",
"176 34 CURVE",
"177 40 OFFCURVE",
"172 49 OFFCURVE",
"177 54 CURVE",
"179 54 OFFCURVE",
"180 56 OFFCURVE",
"180 58 CURVE",
"180 96 OFFCURVE",
"181 133 OFFCURVE",
"179 170 CURVE",
"180 196 OFFCURVE",
"173 224 OFFCURVE",
"185 247 CURVE",
"199 241 OFFCURVE",
"189 250 OFFCURVE",
"204 250 CURVE",
"209 250 OFFCURVE",
"206 256 OFFCURVE",
"210 258 CURVE",
"213 259 OFFCURVE",
"217 260 OFFCURVE",
"217 264 CURVE",
"218 268 OFFCURVE",
"218 287 OFFCURVE",
"223 286 CURVE",
"241 285 OFFCURVE",
"258 287 OFFCURVE",
"275 286 CURVE",
"271 267 OFFCURVE",
"269 258 OFFCURVE",
"304 263 CURVE",
"307 270 OFFCURVE",
"307 279 OFFCURVE",
"312 285 CURVE",
"315 284 OFFCURVE",
"317 285 OFFCURVE",
"319 287 CURVE",
"354 290 OFFCURVE",
"391 286 OFFCURVE",
"426 290 CURVE",
"439 295 OFFCURVE",
"433 278 OFFCURVE",
"433 271 CURVE",
"423 269 OFFCURVE",
"410 281 OFFCURVE",
"403 274 CURVE",
"397 261 OFFCURVE",
"391 250 OFFCURVE",
"399 238 CURVE",
"407 233 OFFCURVE",
"418 233 OFFCURVE",
"427 229 CURVE",
"431 222 OFFCURVE",
"434 213 OFFCURVE",
"433 205 CURVE",
"427 205 OFFCURVE",
"417 210 OFFCURVE",
"413 203 CURVE",
"405 190 OFFCURVE",
"404 175 OFFCURVE",
"405 160 CURVE",
"404 155 OFFCURVE",
"411 157 OFFCURVE",
"414 156 CURVE",
"421 154 OFFCURVE",
"427 151 OFFCURVE",
"434 151 CURVE",
"436 150 OFFCURVE",
"434 145 OFFCURVE",
"435 142 CURVE",
"421 147 OFFCURVE",
"423 136 OFFCURVE",
"422 126 CURVE",
"421 116 OFFCURVE",
"441 121 OFFCURVE",
"432 109 CURVE",
"415 100 OFFCURVE",
"426 98 OFFCURVE",
"431 84 CURVE",
"437 74 OFFCURVE",
"434 62 OFFCURVE",
"435 50 CURVE",
"434 46 OFFCURVE",
"438 30 OFFCURVE",
"431 34 CURVE",
"422 40 OFFCURVE",
"420 29 OFFCURVE",
"414 25 CURVE",
"409 22 OFFCURVE",
"401 21 OFFCURVE",
"402 14 CURVE",
"401 11 OFFCURVE",
"402 7 OFFCURVE",
"402 4 CURVE",
"406 -1 OFFCURVE",
"410 -4 OFFCURVE",
"414 -8 CURVE",
"416 -9 OFFCURVE",
"418 -9 OFFCURVE",
"420 -10 CURVE",
"425 -10 OFFCURVE",
"429 -11 OFFCURVE",
"433 -13 CURVE",
"437 -14 OFFCURVE",
"440 -17 OFFCURVE",
"441 -21 CURVE",
"442 -22 OFFCURVE",
"443 -22 OFFCURVE",
"443 -22 CURVE",
"444 -22 OFFCURVE",
"444 -23 OFFCURVE",
"445 -23 CURVE",
"446 -23 OFFCURVE",
"447 -23 OFFCURVE",
"449 -23 CURVE",
"455 -23 OFFCURVE",
"462 -23 OFFCURVE",
"468 -22 CURVE",
"469 -22 OFFCURVE",
"469 -22 OFFCURVE",
"469 -22 CURVE",
"470 -22 OFFCURVE",
"470 -22 OFFCURVE",
"471 -22 CURVE",
"475 -21 OFFCURVE",
"478 -20 OFFCURVE",
"482 -20 CURVE",
"493 -17 OFFCURVE",
"504 -17 OFFCURVE",
"515 -17 CURVE",
"517 -17 OFFCURVE",
"520 -17 OFFCURVE",
"522 -17 CURVE",
"523 -17 OFFCURVE",
"524 -17 OFFCURVE",
"525 -17 CURVE",
"525 -17 OFFCURVE",
"534 -16 OFFCURVE",
"538 -16 CURVE",
"540 -15 OFFCURVE",
"542 -15 OFFCURVE",
"543 -15 CURVE",
"548 -11 OFFCURVE",
"558 -12 OFFCURVE",
"559 -4 CURVE",
"561 3 OFFCURVE",
"573 -1 OFFCURVE",
"575 7 CURVE",
"580 18 OFFCURVE",
"583 31 OFFCURVE",
"593 38 CURVE",
"597 49 OFFCURVE",
"601 59 OFFCURVE",
"608 68 CURVE",
"619 86 OFFCURVE",
"637 105 OFFCURVE",
"610 117 CURVE"
);
}
);
width = 616;
}
);
unicode = "0048,0068";
},
{
glyphname = I;
lastChange = "2023-04-23 02:26:56 +0000";
layers = (
{
layerId = "69FA6F11-E000-4957-8B5E-754D211BB72B";
paths = (
{
closed = 1;
nodes = (
"66 652 OFFCURVE",
"102 641 OFFCURVE",
"120 651 CURVE",
"128 644 OFFCURVE",
"139 639 OFFCURVE",
"155 616 CURVE",
"172 591 OFFCURVE",
"137 528 OFFCURVE",
"168 297 CURVE",
"180 214 OFFCURVE",
"152 143 OFFCURVE",
"150 0 CURVE",
"143 -6 OFFCURVE",
"96 -12 OFFCURVE",
"70 -9 CURVE",
"60 -8 OFFCURVE",
"41 0 OFFCURVE",
"30 17 CURVE",
"13 84 OFFCURVE",
"23 293 OFFCURVE",
"24 389 CURVE",
"25 434 OFFCURVE",
"20 526 OFFCURVE",
"35 651 CURVE"
);
}
);
width = 191;
}
);
unicode = "0049,0069";
},
{
glyphname = J;
lastChange = "2023-04-18 19:31:45 +0000";
layers = (
{
layerId = "69FA6F11-E000-4957-8B5E-754D211BB72B";
paths = (
{
closed = 1;
nodes = (
"285 136 OFFCURVE",
"285 136 OFFCURVE",
"287 142 CURVE",
"296 141 OFFCURVE",
"294 145 OFFCURVE",
"295 151 CURVE",
"297 165 OFFCURVE",
"299 178 OFFCURVE",
"299 192 CURVE",
"299 208 OFFCURVE",
"299 224 OFFCURVE",
"297 240 CURVE",
"295 262 OFFCURVE",
"297 284 OFFCURVE",
"294 305 CURVE",
"292 355 OFFCURVE",
"287 405 OFFCURVE",
"286 455 CURVE",
"283 477 OFFCURVE",
"285 500 OFFCURVE",
"281 521 CURVE",
"281 553 OFFCURVE",
"278 584 OFFCURVE",
"277 615 CURVE",
"275 623 OFFCURVE",
"275 631 OFFCURVE",
"277 640 CURVE",
"276 647 OFFCURVE",
"283 647 OFFCURVE",
"288 649 CURVE",
"289 650 OFFCURVE",
"290 649 OFFCURVE",
"291 649 CURVE",
"302 646 OFFCURVE",
"312 650 OFFCURVE",
"323 649 CURVE",
"344 650 OFFCURVE",
"366 653 OFFCURVE",
"387 653 CURVE",
"392 652 OFFCURVE",
"401 656 OFFCURVE",
"402 649 CURVE",
"403 632 OFFCURVE",
"404 614 OFFCURVE",
"405 596 CURVE",
"410 500 OFFCURVE",
"414 404 OFFCURVE",
"420 308 CURVE",
"422 259 OFFCURVE",
"428 209 OFFCURVE",
"423 161 CURVE",
"422 154 OFFCURVE",
"424 147 OFFCURVE",
"421 140 CURVE",
"419 116 OFFCURVE",
"409 94 OFFCURVE",
"398 73 CURVE",
"388 61 OFFCURVE",
"379 49 OFFCURVE",
"368 38 CURVE",
"364 32 OFFCURVE",
"357 30 OFFCURVE",
"352 25 CURVE",
"349 21 OFFCURVE",
"343 18 OFFCURVE",
"338 16 CURVE",
"336 16 OFFCURVE",
"335 15 OFFCURVE",
"333 13 CURVE",
"325 8 OFFCURVE",
"314 4 OFFCURVE",
"305 1 CURVE",
"304 1 OFFCURVE",
"304 1 OFFCURVE",
"304 0 CURVE",
"301 -3 OFFCURVE",
"297 -1 OFFCURVE",
"293 -3 CURVE",
"289 -5 OFFCURVE",
"285 -4 OFFCURVE",
"281 -7 CURVE",
"281 -7 OFFCURVE",
"279 -7 OFFCURVE",
"278 -7 CURVE",
"273 -7 OFFCURVE",
"270 -12 OFFCURVE",
"265 -10 CURVE",
"250 -11 OFFCURVE",
"235 -12 OFFCURVE",
"220 -14 CURVE",
"188 -14 OFFCURVE",
"154 -13 OFFCURVE",
"125 3 CURVE",
"111 5 OFFCURVE",
"101 16 OFFCURVE",
"90 24 CURVE",
"73 37 OFFCURVE",
"62 55 OFFCURVE",
"49 71 CURVE",
"43 78 OFFCURVE",
"37 86 OFFCURVE",
"32 93 CURVE",
"29 96 OFFCURVE",
"29 98 OFFCURVE",
"32 100 CURVE",
"37 104 OFFCURVE",
"34 111 OFFCURVE",
"34 116 CURVE",
"33 120 OFFCURVE",
"30 124 OFFCURVE",
"31 128 CURVE",
"30 133 OFFCURVE",
"28 137 OFFCURVE",
"28 142 CURVE",
"27 155 OFFCURVE",
"24 169 OFFCURVE",
"24 182 CURVE",
"24 186 OFFCURVE",
"27 188 OFFCURVE",
"30 186 CURVE",
"37 185 OFFCURVE",
"45 186 OFFCURVE",
"52 188 CURVE",
"62 191 OFFCURVE",
"74 189 OFFCURVE",
"85 193 CURVE",
"95 195 OFFCURVE",
"106 196 OFFCURVE",
"116 198 CURVE",
"121 200 OFFCURVE",
"125 198 OFFCURVE",
"129 201 CURVE",
"135 203 OFFCURVE",
"135 199 OFFCURVE",
"136 194 CURVE",
"137 186 OFFCURVE",
"138 179 OFFCURVE",
"141 171 CURVE",
"141 160 OFFCURVE",
"145 150 OFFCURVE",
"149 140 CURVE",
"157 123 OFFCURVE",
"170 106 OFFCURVE",
"188 99 CURVE",
"203 92 OFFCURVE",
"220 94 OFFCURVE",
"236 93 CURVE",
"244 97 OFFCURVE",
"253 96 OFFCURVE",
"261 100 CURVE",
"270 102 OFFCURVE",
"268 105 OFFCURVE",
"272 111 CURVE",
"278 115 OFFCURVE",
"283 121 OFFCURVE",
"287 126 CURVE",
"287 129 OFFCURVE",
"289 130 OFFCURVE",
"290 133 CURVE"
);
}
);
width = 473;
}
);
unicode = "004A,006A";
},
{
glyphname = K;
lastChange = "2023-04-23 02:39:15 +0000";
layers = (
{
layerId = "69FA6F11-E000-4957-8B5E-754D211BB72B";
paths = (
{
closed = 1;
nodes = (
"32 658 OFFCURVE",
"142 643 OFFCURVE",
"183 652 CURVE",
"184 612 OFFCURVE",
"176 562 OFFCURVE",
"183 460 CURVE",
"211 446 OFFCURVE",
"292 427 OFFCURVE",
"330 643 CURVE",
"359 637 OFFCURVE",
"423 634 OFFCURVE",
"439 621 CURVE",
"435 595 OFFCURVE",
"392 574 OFFCURVE",
"366 511 CURVE",
"336 486 OFFCURVE",
"307 458 OFFCURVE",
"290 414 CURVE",
"321 395 OFFCURVE",
"359 376 OFFCURVE",
"380 306 CURVE",
"391 267 OFFCURVE",
"409 156 OFFCURVE",
"414 11 CURVE",
"414 1 OFFCURVE",
"338 -7 OFFCURVE",
"301 -11 CURVE",
"286 -8 OFFCURVE",
"268 1 OFFCURVE",
"265 16 CURVE",
"256 59 OFFCURVE",
"251 155 OFFCURVE",
"255 269 CURVE",
"256 299 OFFCURVE",
"226 319 OFFCURVE",
"207 328 CURVE",
"191 314 OFFCURVE",
"179 188 OFFCURVE",
"190 7 CURVE",
"190 -2 OFFCURVE",
"124 -9 OFFCURVE",
"61 -12 CURVE",
"53 -12 OFFCURVE",
"44 5 OFFCURVE",
"44 20 CURVE",
"45 106 OFFCURVE",
"45 310 OFFCURVE",
"54 601 CURVE",
"55 610 OFFCURVE",
"15 639 OFFCURVE",
"20 653 CURVE"
);
}
);
width = 459;
}
);
unicode = "004B,006B";
},
{
glyphname = L;
lastChange = "2023-04-18 19:31:45 +0000";
layers = (
{
layerId = "69FA6F11-E000-4957-8B5E-754D211BB72B";
paths = (
{
closed = 1;
nodes = (
"416 105 OFFCURVE",
"412 110 OFFCURVE",
"411 115 CURVE",
"405 112 OFFCURVE",
"404 106 OFFCURVE",
"399 101 CURVE",
"405 100 OFFCURVE",
"409 100 OFFCURVE",
"414 99 CURVE"
);
},
{
closed = 1;
nodes = (
"170 651 OFFCURVE",
"175 650 OFFCURVE",
"181 650 CURVE",
"185 649 OFFCURVE",
"194 652 OFFCURVE",
"193 646 CURVE",
"193 632 OFFCURVE",
"193 619 OFFCURVE",
"193 605 CURVE",
"194 596 OFFCURVE",
"191 585 OFFCURVE",
"193 576 CURVE",
"194 572 OFFCURVE",
"201 568 OFFCURVE",
"198 563 CURVE",
"186 543 OFFCURVE",
"192 518 OFFCURVE",
"190 496 CURVE",
"189 486 OFFCURVE",
"196 492 OFFCURVE",
"200 488 CURVE",
"206 476 OFFCURVE",
"200 447 OFFCURVE",
"194 435 CURVE",
"193 431 OFFCURVE",
"189 434 OFFCURVE",
"188 429 CURVE",
"187 392 OFFCURVE",
"188 355 OFFCURVE",
"186 319 CURVE",
"185 281 OFFCURVE",
"183 243 OFFCURVE",
"183 205 CURVE",
"180 193 OFFCURVE",
"182 180 OFFCURVE",
"182 168 CURVE",
"180 148 OFFCURVE",
"180 128 OFFCURVE",
"180 108 CURVE",
"180 100 OFFCURVE",
"189 102 OFFCURVE",
"194 102 CURVE",
"201 101 OFFCURVE",
"207 100 OFFCURVE",
"214 100 CURVE",
"234 99 OFFCURVE",
"254 101 OFFCURVE",
"273 98 CURVE",
"284 94 OFFCURVE",
"295 99 OFFCURVE",
"306 98 CURVE",
"309 99 OFFCURVE",
"313 98 OFFCURVE",
"316 98 CURVE",
"319 100 OFFCURVE",
"322 101 OFFCURVE",
"325 101 CURVE",
"327 102 OFFCURVE",
"328 103 OFFCURVE",
"327 105 CURVE",
"327 108 OFFCURVE",
"328 111 OFFCURVE",
"330 113 CURVE",
"335 118 OFFCURVE",
"336 126 OFFCURVE",
"340 131 CURVE",
"344 136 OFFCURVE",
"349 140 OFFCURVE",
"353 145 CURVE",
"359 155 OFFCURVE",
"365 164 OFFCURVE",
"373 172 CURVE",
"375 175 OFFCURVE",
"376 180 OFFCURVE",
"380 181 CURVE",
"386 181 OFFCURVE",
"393 184 OFFCURVE",
"398 180 CURVE",
"405 172 OFFCURVE",
"420 166 OFFCURVE",
"420 154 CURVE",
"416 153 OFFCURVE",
"415 149 OFFCURVE",
"414 146 CURVE",
"413 144 OFFCURVE",
"415 141 OFFCURVE",
"417 141 CURVE",
"421 140 OFFCURVE",
"421 148 OFFCURVE",
"421 150 CURVE",
"418 154 OFFCURVE",
"425 154 OFFCURVE",
"428 155 CURVE",
"436 155 OFFCURVE",
"429 171 OFFCURVE",
"439 170 CURVE",
"445 168 OFFCURVE",
"452 173 OFFCURVE",
"457 170 CURVE",
"462 168 OFFCURVE",
"466 164 OFFCURVE",
"470 164 CURVE",
"478 164 OFFCURVE",
"472 154 OFFCURVE",
"478 153 CURVE",
"495 147 OFFCURVE",
"498 150 OFFCURVE",
"501 131 CURVE",
"511 100 OFFCURVE",
"496 99 OFFCURVE",
"506 92 CURVE",
"509 90 OFFCURVE",
"510 88 OFFCURVE",
"510 84 CURVE",
"511 79 OFFCURVE",
"506 61 OFFCURVE",
"512 60 CURVE",
"517 58 OFFCURVE",
"529 41 OFFCURVE",
"534 45 CURVE",
"542 35 OFFCURVE",
"538 30 OFFCURVE",
"537 19 CURVE",
"537 17 OFFCURVE",
"538 14 OFFCURVE",
"541 13 CURVE",
"547 10 OFFCURVE",
"543 1 OFFCURVE",
"547 -2 CURVE",
"553 -12 OFFCURVE",
"545 -23 OFFCURVE",
"547 -33 CURVE",
"547 -35 OFFCURVE",
"546 -38 OFFCURVE",
"544 -40 CURVE",
"541 -43 OFFCURVE",
"535 -41 OFFCURVE",
"530 -41 CURVE",
"518 -42 OFFCURVE",
"505 -43 OFFCURVE",
"492 -42 CURVE",
"485 -41 OFFCURVE",
"481 -32 OFFCURVE",
"475 -28 CURVE",
"470 -24 OFFCURVE",
"467 -21 OFFCURVE",
"466 -15 CURVE",
"459 -20 OFFCURVE",
"460 -31 OFFCURVE",
"450 -33 CURVE",
"447 -34 OFFCURVE",
"443 -38 OFFCURVE",
"439 -36 CURVE",
"434 -35 OFFCURVE",
"429 -32 OFFCURVE",
"423 -32 CURVE",
"420 -32 OFFCURVE",
"403 -30 OFFCURVE",
"401 -27 CURVE",
"399 -25 OFFCURVE",
"396 -24 OFFCURVE",
"393 -24 CURVE",
"387 -23 OFFCURVE",
"378 -22 OFFCURVE",
"376 -15 CURVE",
"374 -12 OFFCURVE",
"373 -11 OFFCURVE",
"370 -11 CURVE",
"346 -10 OFFCURVE",
"322 -10 OFFCURVE",
"298 -9 CURVE",
"273 -7 OFFCURVE",
"248 -7 OFFCURVE",
"223 -5 CURVE",
"214 -5 OFFCURVE",
"205 -5 OFFCURVE",
"197 -5 CURVE",
"194 -5 OFFCURVE",
"194 -6 OFFCURVE",
"194 -9 CURVE",
"194 -12 OFFCURVE",
"195 -17 OFFCURVE",
"192 -19 CURVE",
"183 -23 OFFCURVE",
"175 -27 OFFCURVE",
"166 -29 CURVE",
"162 -29 OFFCURVE",
"156 -36 OFFCURVE",
"152 -31 CURVE",
"145 -26 OFFCURVE",
"144 -1 OFFCURVE",
"135 -2 CURVE",
"116 -2 OFFCURVE",
"97 -1 OFFCURVE",
"78 -1 CURVE",
"72 1 OFFCURVE",
"57 0 OFFCURVE",
"56 7 CURVE",
"56 28 OFFCURVE",
"56 50 OFFCURVE",
"57 71 CURVE",
"58 81 OFFCURVE",
"57 91 OFFCURVE",
"58 100 CURVE",
"58 103 OFFCURVE",
"57 105 OFFCURVE",
"54 106 CURVE",
"41 109 OFFCURVE",
"47 124 OFFCURVE",
"49 132 CURVE",
"51 136 OFFCURVE",
"56 135 OFFCURVE",
"59 136 CURVE",
"61 257 OFFCURVE",
"65 379 OFFCURVE",
"68 500 CURVE",
"75 567 OFFCURVE",
"46 531 OFFCURVE",
"67 573 CURVE",
"69 578 OFFCURVE",
"61 577 OFFCURVE",
"58 578 CURVE",
"44 580 OFFCURVE",
"33 587 OFFCURVE",
"20 593 CURVE",
"10 596 OFFCURVE",
"24 610 OFFCURVE",
"25 617 CURVE",
"28 630 OFFCURVE",
"34 642 OFFCURVE",
"38 654 CURVE",
"41 660 OFFCURVE",
"43 678 OFFCURVE",
"52 674 CURVE",
"57 670 OFFCURVE",
"64 668 OFFCURVE",
"70 666 CURVE",
"79 663 OFFCURVE",
"87 659 OFFCURVE",
"97 660 CURVE",
"99 660 OFFCURVE",
"102 660 OFFCURVE",
"105 661 CURVE",
"107 663 OFFCURVE",
"111 662 OFFCURVE",
"114 663 CURVE",
"120 664 OFFCURVE",
"122 658 OFFCURVE",
"126 656 CURVE",
"130 663 OFFCURVE",
"130 684 OFFCURVE",
"142 676 CURVE",
"159 667 OFFCURVE",
"176 681 OFFCURVE",
"163 651 CURVE"
);
}
);
width = 517;
}
);
unicode = "004C,006C";
},
{
glyphname = M;
lastChange = "2023-04-23 02:40:32 +0000";
layers = (
{
layerId = "69FA6F11-E000-4957-8B5E-754D211BB72B";
paths = (
{
closed = 1;
nodes = (
"45 661 OFFCURVE",
"175 584 OFFCURVE",
"266 488 CURVE",
"333 525 OFFCURVE",
"408 562 OFFCURVE",
"471 629 CURVE",
"479 631 OFFCURVE",
"489 572 OFFCURVE",
"487 554 CURVE",
"476 469 OFFCURVE",
"452 325 OFFCURVE",
"462 56 CURVE",
"462 48 OFFCURVE",
"418 42 OFFCURVE",
"402 40 CURVE",
"393 38 OFFCURVE",
"376 43 OFFCURVE",
"362 44 CURVE",
"358 73 OFFCURVE",
"352 197 OFFCURVE",
"351 340 CURVE",
"327 327 OFFCURVE",
"251 223 OFFCURVE",
"234 289 CURVE",
"226 319 OFFCURVE",
"197 335 OFFCURVE",
"221 425 CURVE",
"203 430 OFFCURVE",
"182 256 OFFCURVE",
"172 460 CURVE",
"158 481 OFFCURVE",
"138 270 OFFCURVE",
"140 494 CURVE",
"128 519 OFFCURVE",
"106 524 OFFCURVE",
"116 531 CURVE",
"75 470 OFFCURVE",
"150 366 OFFCURVE",
"165 183 CURVE",
"170 127 OFFCURVE",
"129 67 OFFCURVE",
"118 -3 CURVE",
"100 -12 OFFCURVE",
"61 -6 OFFCURVE",
"51 0 CURVE",
"25 68 OFFCURVE",
"23 261 OFFCURVE",
"27 541 CURVE",
"27 565 OFFCURVE",
"11 629 OFFCURVE",
"27 653 CURVE"
);
}
);
width = 507;
}
);
unicode = "004D,006D";
},
{
glyphname = N;
lastChange = "2023-04-18 19:31:45 +0000";
layers = (
{
layerId = "69FA6F11-E000-4957-8B5E-754D211BB72B";
paths = (
{
closed = 1;
nodes = (
"457 -14 OFFCURVE",
"454 -2 OFFCURVE",
"444 -2 CURVE",
"435 -3 OFFCURVE",
"429 0 OFFCURVE",
"425 9 CURVE",
"419 24 OFFCURVE",
"408 35 OFFCURVE",
"402 50 CURVE",
"389 69 OFFCURVE",
"378 89 OFFCURVE",
"365 108 CURVE",
"357 123 OFFCURVE",
"348 137 OFFCURVE",
"340 152 CURVE",
"333 159 OFFCURVE",
"330 169 OFFCURVE",
"324 177 CURVE",
"319 182 OFFCURVE",
"315 188 OFFCURVE",
"313 196 CURVE",
"308 205 OFFCURVE",
"303 214 OFFCURVE",
"298 223 CURVE",
"292 230 OFFCURVE",
"289 238 OFFCURVE",
"284 246 CURVE",
"281 251 OFFCURVE",
"276 257 OFFCURVE",
"273 264 CURVE",
"271 269 OFFCURVE",
"268 274 OFFCURVE",
"264 278 CURVE",
"260 282 OFFCURVE",
"260 289 OFFCURVE",
"256 293 CURVE",
"243 311 OFFCURVE",
"234 332 OFFCURVE",
"221 349 CURVE",
"216 356 OFFCURVE",
"213 364 OFFCURVE",
"208 371 CURVE",
"204 376 OFFCURVE",
"201 382 OFFCURVE",
"198 388 CURVE",
"191 400 OFFCURVE",
"183 412 OFFCURVE",
"178 425 CURVE",
"176 429 OFFCURVE",
"167 432 OFFCURVE",
"166 426 CURVE",
"166 415 OFFCURVE",
"166 405 OFFCURVE",
"166 394 CURVE",
"166 295 OFFCURVE",
"165 197 OFFCURVE",
"165 98 CURVE",
"165 65 OFFCURVE",
"165 33 OFFCURVE",
"164 0 CURVE",
"164 -4 OFFCURVE",
"159 -3 OFFCURVE",
"156 -3 CURVE",
"153 -3 OFFCURVE",
"150 -3 OFFCURVE",
"147 -3 CURVE",
"123 -1 OFFCURVE",
"98 -3 OFFCURVE",
"74 -3 CURVE",
"67 -3 OFFCURVE",
"60 -2 OFFCURVE",
"53 -1 CURVE",
"49 -1 OFFCURVE",
"47 4 OFFCURVE",
"48 8 CURVE",
"51 221 OFFCURVE",
"52 434 OFFCURVE",
"52 646 CURVE",
"52 650 OFFCURVE",
"53 651 OFFCURVE",
"57 651 CURVE",
"73 651 OFFCURVE",
"90 651 OFFCURVE",
"106 650 CURVE",
"125 650 OFFCURVE",
"145 650 OFFCURVE",
"164 649 CURVE",
"171 649 OFFCURVE",
"177 647 OFFCURVE",
"179 639 CURVE",
"181 633 OFFCURVE",
"186 628 OFFCURVE",
"189 621 CURVE",
"193 613 OFFCURVE",
"197 604 OFFCURVE",
"204 598 CURVE",
"207 596 OFFCURVE",
"209 593 OFFCURVE",
"208 589 CURVE",
"208 588 OFFCURVE",
"209 587 OFFCURVE",
"209 587 CURVE",
"213 580 OFFCURVE",
"218 574 OFFCURVE",
"222 568 CURVE",
"225 562 OFFCURVE",
"230 557 OFFCURVE",
"232 550 CURVE",
"236 545 OFFCURVE",
"239 541 OFFCURVE",
"241 535 CURVE",
"244 529 OFFCURVE",
"247 523 OFFCURVE",
"252 518 CURVE",
"257 510 OFFCURVE",
"260 501 OFFCURVE",
"267 494 CURVE",
"271 489 OFFCURVE",
"271 481 OFFCURVE",
"276 476 CURVE",
"280 473 OFFCURVE",
"282 468 OFFCURVE",
"283 463 CURVE",
"287 454 OFFCURVE",
"294 446 OFFCURVE",
"299 437 CURVE",
"303 427 OFFCURVE",
"311 419 OFFCURVE",
"315 409 CURVE",
"316 399 OFFCURVE",
"326 396 OFFCURVE",
"328 387 CURVE",
"330 377 OFFCURVE",
"339 372 OFFCURVE",
"342 364 CURVE",
"347 353 OFFCURVE",
"356 345 OFFCURVE",
"359 333 CURVE",
"363 326 OFFCURVE",
"370 321 OFFCURVE",
"372 313 CURVE",
"373 310 OFFCURVE",
"375 307 OFFCURVE",
"377 304 CURVE",
"381 299 OFFCURVE",
"385 294 OFFCURVE",
"388 289 CURVE",
"388 283 OFFCURVE",
"392 280 OFFCURVE",
"396 276 CURVE",
"398 273 OFFCURVE",
"400 269 OFFCURVE",
"401 265 CURVE",
"403 258 OFFCURVE",
"411 253 OFFCURVE",
"414 247 CURVE",
"418 234 OFFCURVE",
"427 225 OFFCURVE",
"432 212 CURVE",
"439 203 OFFCURVE",
"445 216 OFFCURVE",
"441 223 CURVE",
"440 228 OFFCURVE",
"444 234 OFFCURVE",
"442 241 CURVE",
"442 254 OFFCURVE",
"442 267 OFFCURVE",
"442 279 CURVE",
"442 379 OFFCURVE",
"442 479 OFFCURVE",
"442 579 CURVE",
"442 600 OFFCURVE",
"443 621 OFFCURVE",
"443 642 CURVE",
"443 647 OFFCURVE",
"444 652 OFFCURVE",
"450 651 CURVE",
"464 651 OFFCURVE",
"478 650 OFFCURVE",
"492 650 CURVE",
"508 650 OFFCURVE",
"525 651 OFFCURVE",
"541 651 CURVE",
"549 650 OFFCURVE",
"561 652 OFFCURVE",
"559 640 CURVE",
"558 539 OFFCURVE",
"557 437 OFFCURVE",
"557 335 CURVE",
"557 314 OFFCURVE",
"557 293 OFFCURVE",
"558 272 CURVE",
"558 250 OFFCURVE",
"557 227 OFFCURVE",
"558 204 CURVE",
"557 144 OFFCURVE",
"559 83 OFFCURVE",
"558 22 CURVE",
"558 15 OFFCURVE",
"558 9 OFFCURVE",
"558 2 CURVE",
"558 -2 OFFCURVE",
"557 -3 OFFCURVE",
"553 -3 CURVE",
"522 -4 OFFCURVE",
"489 -1 OFFCURVE",
"458 -3 CURVE"
);
}
);
width = 615;
}
);
unicode = "004E,006E";
},
{
glyphname = O;
lastChange = "2023-04-23 03:36:24 +0000";
layers = (
{
layerId = "69FA6F11-E000-4957-8B5E-754D211BB72B";
paths = (
{
closed = 1;
nodes = (
"237 434 OFFCURVE",
"199 422 OFFCURVE",
"191 389 CURVE",
"185 367 OFFCURVE",
"174 273 OFFCURVE",
"195 175 CURVE",
"199 153 OFFCURVE",
"234 135 OFFCURVE",
"248 128 CURVE",
"258 136 OFFCURVE",
"274 155 OFFCURVE",
"274 217 CURVE",
"274 263 OFFCURVE",
"260 313 OFFCURVE",
"265 420 CURVE",
"265 426 OFFCURVE",
"248 428 OFFCURVE",
"246 434 CURVE"
);
},
{
closed = 1;
nodes = (
"207 658 OFFCURVE",
"235 612 OFFCURVE",
"288 648 CURVE",
"309 663 OFFCURVE",
"341 656 OFFCURVE",
"352 604 CURVE",
"359 573 OFFCURVE",
"373 523 OFFCURVE",
"375 495 CURVE",
"378 423 OFFCURVE",
"354 330 OFFCURVE",
"356 151 CURVE",
"356 103 OFFCURVE",
"328 68 OFFCURVE",
"315 19 CURVE",
"294 7 OFFCURVE",
"252 0 OFFCURVE",
"245 -6 CURVE",
"227 -5 OFFCURVE",
"195 -8 OFFCURVE",
"178 -10 CURVE",
"151 -13 OFFCURVE",
"104 7 OFFCURVE",
"84 34 CURVE",
"56 49 OFFCURVE",
"32 98 OFFCURVE",
"27 200 CURVE",
"24 260 OFFCURVE",
"13 379 OFFCURVE",
"26 531 CURVE",
"31 580 OFFCURVE",
"45 586 OFFCURVE",
"67 631 CURVE",
"102 646 OFFCURVE",
"128 657 OFFCURVE",
"186 658 CURVE"
);
}
);
width = 395;
}
);
unicode = "004F,006F";
},
{
glyphname = P;
lastChange = "2023-04-18 21:38:52 +0000";
layers = (
{
layerId = "69FA6F11-E000-4957-8B5E-754D211BB72B";
paths = (
{
closed = 1;
nodes = (
"380 654 LINE",
"380 664 OFFCURVE",
"379 673 OFFCURVE",
"379 682 CURVE",
"373 682 OFFCURVE",
"369 687 OFFCURVE",
"363 685 CURVE",
"370 670 OFFCURVE",
"374 671 OFFCURVE",
"359 659 CURVE",
"358 658 OFFCURVE",
"356 657 OFFCURVE",
"357 654 CURVE"
);
},
{
closed = 1;
nodes = (
"175 473 OFFCURVE",
"172 471 OFFCURVE",
"171 468 CURVE",
"171 462 OFFCURVE",
"171 455 OFFCURVE",
"172 449 CURVE",
"174 433 OFFCURVE",
"171 416 OFFCURVE",
"172 399 CURVE",
"169 387 OFFCURVE",
"171 374 OFFCURVE",
"170 361 CURVE",
"170 353 OFFCURVE",
"179 357 OFFCURVE",
"183 356 CURVE",
"217 360 OFFCURVE",
"252 355 OFFCURVE",
"286 360 CURVE",
"292 360 OFFCURVE",
"299 359 OFFCURVE",
"305 361 CURVE",
"308 363 OFFCURVE",
"311 363 OFFCURVE",
"313 363 CURVE",
"329 363 OFFCURVE",
"343 369 OFFCURVE",
"356 376 CURVE",
"365 380 OFFCURVE",
"372 388 OFFCURVE",
"380 395 CURVE",
"404 421 OFFCURVE",
"408 463 OFFCURVE",
"393 495 CURVE",
"388 512 OFFCURVE",
"372 524 OFFCURVE",
"358 533 CURVE",
"347 539 OFFCURVE",
"335 542 OFFCURVE",
"323 544 CURVE",
"316 547 OFFCURVE",
"307 544 OFFCURVE",
"299 545 CURVE",
"269 547 OFFCURVE",
"239 545 OFFCURVE",
"209 546 CURVE",
"195 547 OFFCURVE",
"182 547 OFFCURVE",
"169 548 CURVE",
"165 548 OFFCURVE",
"167 542 OFFCURVE",
"166 540 CURVE",
"167 533 OFFCURVE",
"164 527 OFFCURVE",
"167 521 CURVE",
"168 513 OFFCURVE",
"167 505 OFFCURVE",
"168 497 CURVE",
"169 492 OFFCURVE",
"173 495 OFFCURVE",
"176 494 CURVE",
"179 491 OFFCURVE",
"185 488 OFFCURVE",
"185 484 CURVE",
"183 480 OFFCURVE",
"182 475 OFFCURVE",
"177 475 CURVE"
);
},
{
closed = 1;
nodes = (
"140 653 OFFCURVE",
"182 650 OFFCURVE",
"224 655 CURVE",
"223 660 OFFCURVE",
"221 663 OFFCURVE",
"224 667 CURVE",
"228 673 OFFCURVE",
"230 680 OFFCURVE",
"235 684 CURVE",
"238 687 OFFCURVE",
"243 685 OFFCURVE",
"244 689 CURVE",
"248 701 OFFCURVE",
"254 713 OFFCURVE",
"258 725 CURVE",
"259 728 OFFCURVE",
"260 733 OFFCURVE",
"265 733 CURVE",
"277 734 OFFCURVE",
"270 739 OFFCURVE",
"286 738 CURVE",
"288 738 OFFCURVE",
"290 737 OFFCURVE",
"291 736 CURVE",
"296 737 OFFCURVE",
"300 734 OFFCURVE",
"304 733 CURVE",
"317 729 OFFCURVE",
"330 723 OFFCURVE",
"343 719 CURVE",
"345 718 OFFCURVE",
"346 719 OFFCURVE",
"346 721 CURVE",
"347 726 OFFCURVE",
"344 732 OFFCURVE",
"347 736 CURVE",
"354 741 OFFCURVE",
"360 747 OFFCURVE",
"367 753 CURVE",
"394 777 OFFCURVE",
"394 768 OFFCURVE",
"425 761 CURVE",
"435 760 OFFCURVE",
"441 752 OFFCURVE",
"445 744 CURVE",
"448 738 OFFCURVE",
"449 732 OFFCURVE",
"449 726 CURVE",
"449 725 OFFCURVE",
"450 723 OFFCURVE",
"451 722 CURVE",
"454 718 OFFCURVE",
"462 716 OFFCURVE",
"462 711 CURVE",
"461 698 OFFCURVE",
"493 699 OFFCURVE",
"492 689 CURVE",
"495 644 OFFCURVE",
"493 640 OFFCURVE",
"457 623 CURVE",
"474 613 OFFCURVE",
"490 596 OFFCURVE",
"501 579 CURVE",
"507 569 OFFCURVE",
"515 559 OFFCURVE",
"518 548 CURVE",
"519 541 OFFCURVE",
"525 538 OFFCURVE",
"524 531 CURVE",
"524 526 OFFCURVE",
"528 522 OFFCURVE",
"528 517 CURVE",
"528 514 OFFCURVE",
"528 511 OFFCURVE",
"529 508 CURVE",
"532 502 OFFCURVE",
"531 496 OFFCURVE",
"532 489 CURVE",
"536 448 OFFCURVE",
"536 404 OFFCURVE",
"517 365 CURVE",
"517 360 OFFCURVE",
"513 357 OFFCURVE",
"511 352 CURVE",
"508 348 OFFCURVE",
"509 343 OFFCURVE",
"505 341 CURVE",
"495 326 OFFCURVE",
"483 313 OFFCURVE",
"470 301 CURVE",
"465 295 OFFCURVE",
"458 292 OFFCURVE",
"452 288 CURVE",
"439 279 OFFCURVE",
"425 270 OFFCURVE",
"409 267 CURVE",
"408 267 OFFCURVE",
"407 267 OFFCURVE",
"406 266 CURVE",
"402 263 OFFCURVE",
"397 263 OFFCURVE",
"392 261 CURVE",
"387 259 OFFCURVE",
"381 260 OFFCURVE",
"376 260 CURVE",
"370 259 OFFCURVE",
"364 258 OFFCURVE",
"358 256 CURVE",
"353 254 OFFCURVE",
"347 254 OFFCURVE",
"341 254 CURVE",
"330 254 OFFCURVE",
"319 252 OFFCURVE",
"308 252 CURVE",
"269 252 OFFCURVE",
"229 250 OFFCURVE",
"189 251 CURVE",
"182 251 OFFCURVE",
"166 255 OFFCURVE",
"171 242 CURVE",
"176 232 OFFCURVE",
"173 219 OFFCURVE",
"174 208 CURVE",
"174 193 OFFCURVE",
"173 178 OFFCURVE",
"174 163 CURVE",
"172 152 OFFCURVE",
"175 141 OFFCURVE",
"175 130 CURVE",
"175 124 OFFCURVE",
"174 119 OFFCURVE",
"176 114 CURVE",
"177 111 OFFCURVE",
"174 109 OFFCURVE",
"175 105 CURVE",
"175 97 OFFCURVE",
"175 89 OFFCURVE",
"175 81 CURVE",
"176 60 OFFCURVE",
"175 39 OFFCURVE",
"176 18 CURVE",
"175 8 OFFCURVE",
"174 -2 OFFCURVE",
"161 -1 CURVE",
"148 -1 OFFCURVE",
"135 -1 OFFCURVE",
"121 -1 CURVE",
"112 1 OFFCURVE",
"106 -2 OFFCURVE",
"99 -9 CURVE",
"94 -12 OFFCURVE",
"80 -14 OFFCURVE",
"81 -7 CURVE",
"81 -5 OFFCURVE",
"73 -1 OFFCURVE",
"71 -1 CURVE",
"66 0 OFFCURVE",
"50 -4 OFFCURVE",
"51 3 CURVE",
"50 10 OFFCURVE",
"50 17 OFFCURVE",
"50 24 CURVE",
"52 28 OFFCURVE",
"51 34 OFFCURVE",
"51 39 CURVE",
"51 54 OFFCURVE",
"52 70 OFFCURVE",
"51 85 CURVE",
"50 111 OFFCURVE",
"51 136 OFFCURVE",
"51 162 CURVE",
"51 165 OFFCURVE",
"51 165 OFFCURVE",
"48 166 CURVE",
"46 225 OFFCURVE",
"47 285 OFFCURVE",
"46 344 CURVE",
"45 353 OFFCURVE",
"49 363 OFFCURVE",
"45 372 CURVE",
"44 373 OFFCURVE",
"44 375 OFFCURVE",
"44 376 CURVE",
"45 459 OFFCURVE",
"41 542 OFFCURVE",
"40 624 CURVE",
"41 640 OFFCURVE",
"35 653 OFFCURVE",
"57 650 CURVE",
"62 650 OFFCURVE",
"63 654 OFFCURVE",
"65 657 CURVE",
"68 663 OFFCURVE",
"75 663 OFFCURVE",
"80 667 CURVE",
"88 673 OFFCURVE",
"103 662 OFFCURVE",
"98 653 CURVE",
"98 652 OFFCURVE",
"98 652 OFFCURVE",
"98 651 CURVE"
);
}
);
width = 542;
}
);
unicode = "0050,0070";
},
{
glyphname = Q;
lastChange = "2023-04-23 03:37:36 +0000";
layers = (
{
layerId = "69FA6F11-E000-4957-8B5E-754D211BB72B";
paths = (
{
closed = 1;
nodes = (
"223 523 OFFCURVE",
"189 482 OFFCURVE",
"177 353 CURVE",
"169 274 OFFCURVE",
"171 204 OFFCURVE",
"225 130 CURVE",
"260 125 OFFCURVE",
"290 178 OFFCURVE",
"298 272 CURVE",
"305 355 OFFCURVE",
"260 430 OFFCURVE",
"232 523 CURVE"
);
},
{
closed = 1;
nodes = (
"210 659 OFFCURVE",
"308 599 OFFCURVE",
"367 477 CURVE",
"394 421 OFFCURVE",
"414 364 OFFCURVE",
"410 269 CURVE",
"409 245 OFFCURVE",
"402 222 OFFCURVE",
"375 177 CURVE",
"364 159 OFFCURVE",
"345 148 OFFCURVE",
"335 118 CURVE",
"345 108 OFFCURVE",
"355 97 OFFCURVE",
"367 71 CURVE",
"379 46 OFFCURVE",
"387 31 OFFCURVE",
"403 -5 CURVE",
"418 -20 OFFCURVE",
"440 -26 OFFCURVE",
"446 -39 CURVE",
"452 -43 OFFCURVE",
"409 -51 OFFCURVE",
"390 -61 CURVE",
"377 -68 OFFCURVE",
"336 -72 OFFCURVE",
"333 -84 CURVE",
"325 -87 OFFCURVE",
"312 -57 OFFCURVE",
"303 -22 CURVE",
"296 -11 OFFCURVE",
"286 -9 OFFCURVE",
"273 3 CURVE",
"260 7 OFFCURVE",
"150 -4 OFFCURVE",
"110 -9 CURVE",
"94 -11 OFFCURVE",
"45 16 OFFCURVE",
"72 75 CURVE",
"48 129 OFFCURVE",
"24 140 OFFCURVE",
"20 490 CURVE",
"19 560 OFFCURVE",
"105 608 OFFCURVE",
"181 658 CURVE"
);
}
);
width = 467;
}
);
unicode = "0051,0071";
},
{
glyphname = R;
lastChange = "2023-04-19 01:27:04 +0000";
layers = (
{
layerId = "69FA6F11-E000-4957-8B5E-754D211BB72B";
paths = (
{
closed = 1;
nodes = (
"414 412 OFFCURVE",
"419 425 OFFCURVE",
"424 435 CURVE",
"425 440 OFFCURVE",
"429 445 OFFCURVE",
"430 451 CURVE",
"432 472 OFFCURVE",
"432 493 OFFCURVE",
"424 512 CURVE",
"415 535 OFFCURVE",
"393 545 OFFCURVE",
"370 548 CURVE",
"355 552 OFFCURVE",
"341 548 OFFCURVE",
"326 548 CURVE",
"274 548 OFFCURVE",
"222 542 OFFCURVE",
"170 547 CURVE",
"175 531 OFFCURVE",
"171 513 OFFCURVE",
"174 496 CURVE",
"174 479 OFFCURVE",
"174 462 OFFCURVE",
"174 445 CURVE",
"174 440 OFFCURVE",
"176 438 OFFCURVE",
"179 436 CURVE",
"185 433 OFFCURVE",
"200 429 OFFCURVE",
"202 423 CURVE",
"204 408 OFFCURVE",
"197 394 OFFCURVE",
"194 380 CURVE",
"224 380 OFFCURVE",
"253 382 OFFCURVE",
"283 382 CURVE",
"291 382 OFFCURVE",
"299 382 OFFCURVE",
"307 382 CURVE",
"312 382 OFFCURVE",
"312 382 OFFCURVE",
"312 387 CURVE",
"314 397 OFFCURVE",
"316 407 OFFCURVE",
"317 417 CURVE",
"317 422 OFFCURVE",
"323 421 OFFCURVE",
"326 420 CURVE",
"332 417 OFFCURVE",
"337 423 OFFCURVE",
"342 425 CURVE",
"345 427 OFFCURVE",
"350 426 OFFCURVE",
"353 429 CURVE",
"356 431 OFFCURVE",
"359 434 OFFCURVE",
"363 435 CURVE",
"367 438 OFFCURVE",
"371 444 OFFCURVE",
"377 443 CURVE",
"384 440 OFFCURVE",
"390 435 OFFCURVE",
"396 431 CURVE",
"407 427 OFFCURVE",
"403 416 OFFCURVE",
"403 407 CURVE"
);
},
{
closed = 1;
nodes = (
"602 358 OFFCURVE",
"603 348 OFFCURVE",
"598 342 CURVE",
"596 341 OFFCURVE",
"595 340 OFFCURVE",
"595 338 CURVE",
"595 330 OFFCURVE",
"592 322 OFFCURVE",
"588 315 CURVE",
"582 307 OFFCURVE",
"587 295 OFFCURVE",
"577 289 CURVE",
"573 283 OFFCURVE",
"558 282 OFFCURVE",
"565 273 CURVE",
"564 270 OFFCURVE",
"560 268 OFFCURVE",
"562 264 CURVE",
"565 263 OFFCURVE",
"569 263 OFFCURVE",
"569 257 CURVE",
"566 258 OFFCURVE",
"563 258 OFFCURVE",
"561 259 CURVE",
"560 243 OFFCURVE",
"556 230 OFFCURVE",
"553 215 CURVE",
"553 201 OFFCURVE",
"541 205 OFFCURVE",
"532 204 CURVE",
"531 196 OFFCURVE",
"536 190 OFFCURVE",
"535 182 CURVE",
"537 175 OFFCURVE",
"534 174 OFFCURVE",
"528 171 CURVE",
"528 169 OFFCURVE",
"529 167 OFFCURVE",
"530 165 CURVE",
"536 158 OFFCURVE",
"540 150 OFFCURVE",
"545 142 CURVE",
"559 119 OFFCURVE",
"574 96 OFFCURVE",
"590 74 CURVE",
"601 55 OFFCURVE",
"612 35 OFFCURVE",
"625 17 CURVE",
"627 11 OFFCURVE",
"635 1 OFFCURVE",
"624 0 CURVE",
"608 1 OFFCURVE",
"593 -2 OFFCURVE",
"578 -1 CURVE",
"547 -2 OFFCURVE",
"516 -1 OFFCURVE",
"486 -2 CURVE",
"471 -2 OFFCURVE",
"467 13 OFFCURVE",
"458 21 CURVE",
"447 36 OFFCURVE",
"436 52 OFFCURVE",
"426 68 CURVE",
"417 68 OFFCURVE",
"407 67 OFFCURVE",
"397 66 CURVE",
"392 65 OFFCURVE",
"390 69 OFFCURVE",
"388 73 CURVE",
"388 74 OFFCURVE",
"387 75 OFFCURVE",
"386 75 CURVE",
"381 76 OFFCURVE",
"381 79 OFFCURVE",
"380 83 CURVE",
"370 84 OFFCURVE",
"352 72 OFFCURVE",
"344 80 CURVE",
"327 89 OFFCURVE",
"313 102 OFFCURVE",
"303 118 CURVE",
"297 129 OFFCURVE",
"294 141 OFFCURVE",
"294 153 CURVE",
"292 167 OFFCURVE",
"271 185 OFFCURVE",
"289 197 CURVE",
"299 205 OFFCURVE",
"285 237 OFFCURVE",
"298 240 CURVE",
"301 241 OFFCURVE",
"302 242 OFFCURVE",
"299 245 CURVE",
"295 249 OFFCURVE",
"291 253 OFFCURVE",
"286 255 CURVE",
"275 264 OFFCURVE",
"262 270 OFFCURVE",
"248 271 CURVE",
"224 270 OFFCURVE",
"201 274 OFFCURVE",
"177 273 CURVE",
"177 190 OFFCURVE",
"181 107 OFFCURVE",
"179 24 CURVE",
"178 18 OFFCURVE",
"182 13 OFFCURVE",
"177 8 CURVE",
"174 5 OFFCURVE",
"174 -1 OFFCURVE",
"168 -1 CURVE",
"134 -4 OFFCURVE",
"99 -2 OFFCURVE",
"64 -3 CURVE",
"56 -2 OFFCURVE",
"45 -6 OFFCURVE",
"46 6 CURVE",
"43 152 OFFCURVE",
"45 299 OFFCURVE",
"40 444 CURVE",
"42 509 OFFCURVE",
"40 574 OFFCURVE",
"40 639 CURVE",
"40 646 OFFCURVE",
"42 646 OFFCURVE",
"48 647 CURVE",
"59 648 OFFCURVE",
"70 647 OFFCURVE",
"82 648 CURVE",
"141 653 OFFCURVE",
"200 653 OFFCURVE",
"259 656 CURVE",
"274 659 OFFCURVE",
"290 657 OFFCURVE",
"305 659 CURVE",
"337 662 OFFCURVE",
"368 660 OFFCURVE",
"399 659 CURVE",
"406 659 OFFCURVE",
"412 658 OFFCURVE",
"419 657 CURVE",
"430 658 OFFCURVE",
"440 651 OFFCURVE",
"451 651 CURVE",
"462 650 OFFCURVE",
"471 645 OFFCURVE",
"481 641 CURVE",
"493 636 OFFCURVE",
"502 628 OFFCURVE",
"510 620 CURVE",
"514 616 OFFCURVE",
"516 619 OFFCURVE",
"517 623 CURVE",
"516 628 OFFCURVE",
"519 631 OFFCURVE",
"521 634 CURVE",
"526 640 OFFCURVE",
"528 648 OFFCURVE",
"534 653 CURVE",
"539 656 OFFCURVE",
"544 659 OFFCURVE",
"550 661 CURVE",
"554 664 OFFCURVE",
"555 663 OFFCURVE",
"558 660 CURVE",
"566 650 OFFCURVE",
"568 654 OFFCURVE",
"580 652 CURVE",
"593 650 OFFCURVE",
"591 645 OFFCURVE",
"598 635 CURVE",
"599 629 OFFCURVE",
"603 623 OFFCURVE",
"605 617 CURVE",
"606 613 OFFCURVE",
"606 609 OFFCURVE",
"610 606 CURVE",
"613 601 OFFCURVE",
"611 596 OFFCURVE",
"617 591 CURVE",
"622 584 OFFCURVE",
"619 574 OFFCURVE",
"620 566 CURVE",
"623 555 OFFCURVE",
"624 544 OFFCURVE",
"624 534 CURVE",
"624 525 OFFCURVE",
"634 528 OFFCURVE",
"637 523 CURVE",
"641 517 OFFCURVE",
"643 508 OFFCURVE",
"637 502 CURVE",
"634 500 OFFCURVE",
"632 497 OFFCURVE",
"634 492 CURVE",
"636 484 OFFCURVE",
"636 476 OFFCURVE",
"636 468 CURVE",
"634 462 OFFCURVE",
"633 455 OFFCURVE",
"629 451 CURVE",
"627 447 OFFCURVE",
"633 446 OFFCURVE",
"635 444 CURVE",
"637 443 OFFCURVE",
"638 442 OFFCURVE",
"637 440 CURVE",
"635 435 OFFCURVE",
"635 431 OFFCURVE",
"630 428 CURVE",
"630 428 OFFCURVE",
"630 426 OFFCURVE",
"630 425 CURVE",
"633 421 OFFCURVE",
"632 416 OFFCURVE",
"633 411 CURVE",
"638 398 OFFCURVE",
"645 379 OFFCURVE",
"631 371 CURVE",
"622 360 OFFCURVE",
"614 367 OFFCURVE",
"603 366 CURVE"
);
}
);
width = 641;
}
);
unicode = "0052,0072";
},
{
glyphname = S;
lastChange = "2023-04-23 03:39:25 +0000";
layers = (
{
layerId = "69FA6F11-E000-4957-8B5E-754D211BB72B";
paths = (
{
closed = 1;
nodes = (
"209 654 OFFCURVE",
"275 665 OFFCURVE",
"352 646 CURVE",
"377 640 OFFCURVE",
"395 614 OFFCURVE",
"388 569 CURVE",
"385 543 OFFCURVE",
"371 526 OFFCURVE",
"358 499 CURVE",
"332 492 OFFCURVE",
"297 503 OFFCURVE",
"287 517 CURVE",
"270 527 OFFCURVE",
"252 529 OFFCURVE",
"242 536 CURVE",
"226 537 OFFCURVE",
"212 529 OFFCURVE",
"209 511 CURVE",
"206 493 OFFCURVE",
"243 476 OFFCURVE",
"257 439 CURVE",
"301 386 OFFCURVE",
"380 339 OFFCURVE",
"375 256 CURVE",
"374 230 OFFCURVE",
"348 203 OFFCURVE",
"325 141 CURVE",
"313 109 OFFCURVE",
"266 85 OFFCURVE",
"240 30 CURVE",
"220 10 OFFCURVE",
"178 6 OFFCURVE",
"167 -7 CURVE",
"140 -8 OFFCURVE",
"101 10 OFFCURVE",
"83 34 CURVE",
"58 48 OFFCURVE",
"42 74 OFFCURVE",
"29 105 CURVE",
"17 134 OFFCURVE",
"9 164 OFFCURVE",
"65 209 CURVE",
"97 215 OFFCURVE",
"121 190 OFFCURVE",
"139 174 CURVE",
"152 161 OFFCURVE",
"176 156 OFFCURVE",
"186 141 CURVE",
"204 135 OFFCURVE",
"217 157 OFFCURVE",
"220 177 CURVE",
"226 213 OFFCURVE",
"170 218 OFFCURVE",
"152 267 CURVE",
"118 303 OFFCURVE",
"85 335 OFFCURVE",
"86 426 CURVE",
"87 459 OFFCURVE",
"92 501 OFFCURVE",
"123 577 CURVE",
"133 603 OFFCURVE",
"110 626 OFFCURVE",
"133 647 CURVE"
);
}
);
width = 410;
}
);
unicode = "0053,0073";
},
{
glyphname = T;
lastChange = "2023-04-19 01:40:56 +0000";
layers = (
{
layerId = "69FA6F11-E000-4957-8B5E-754D211BB72B";
paths = (
{
closed = 1;
nodes = (
"191 53 OFFCURVE",
"191 102 OFFCURVE",
"190 151 CURVE",
"190 234 OFFCURVE",
"187 318 OFFCURVE",
"187 401 CURVE",
"186 402 OFFCURVE",
"185 402 OFFCURVE",
"184 402 CURVE",
"185 405 OFFCURVE",
"187 407 OFFCURVE",
"187 411 CURVE",
"186 419 OFFCURVE",
"186 427 OFFCURVE",
"186 435 CURVE",
"185 455 OFFCURVE",
"186 475 OFFCURVE",
"186 494 CURVE",
"185 495 OFFCURVE",
"184 495 OFFCURVE",
"183 495 CURVE",
"187 511 OFFCURVE",
"184 528 OFFCURVE",
"186 544 CURVE",
"188 553 OFFCURVE",
"175 554 OFFCURVE",
"172 547 CURVE",
"170 544 OFFCURVE",
"168 541 OFFCURVE",
"166 538 CURVE",
"163 533 OFFCURVE",
"154 543 OFFCURVE",
"148 541 CURVE",
"148 539 OFFCURVE",
"148 536 OFFCURVE",
"149 533 CURVE",
"134 528 OFFCURVE",
"117 529 OFFCURVE",
"102 527 CURVE",
"81 524 OFFCURVE",
"85 528 OFFCURVE",
"81 546 CURVE",
"73 547 OFFCURVE",
"65 548 OFFCURVE",
"57 547 CURVE",
"46 544 OFFCURVE",
"34 548 OFFCURVE",
"23 547 CURVE",
"14 547 OFFCURVE",
"-3 541 OFFCURVE",
"-6 553 CURVE",
"-9 584 OFFCURVE",
"-6 615 OFFCURVE",
"-8 646 CURVE",
"-11 655 OFFCURVE",
"34 649 OFFCURVE",
"41 652 CURVE",
"114 652 OFFCURVE",
"187 654 OFFCURVE",
"259 654 CURVE",
"263 654 OFFCURVE",
"273 651 OFFCURVE",
"273 657 CURVE",
"274 670 OFFCURVE",
"280 681 OFFCURVE",
"280 694 CURVE",
"280 709 OFFCURVE",
"282 714 OFFCURVE",
"304 714 CURVE",
"311 714 OFFCURVE",
"319 718 OFFCURVE",
"325 713 CURVE",
"331 707 OFFCURVE",
"337 701 OFFCURVE",
"343 695 CURVE",
"349 690 OFFCURVE",
"358 686 OFFCURVE",
"360 678 CURVE",
"361 670 OFFCURVE",
"356 664 OFFCURVE",
"357 657 CURVE",
"380 657 OFFCURVE",
"404 656 OFFCURVE",
"428 658 CURVE",
"439 659 OFFCURVE",
"453 655 OFFCURVE",
"461 664 CURVE",
"464 668 OFFCURVE",
"469 671 OFFCURVE",
"472 676 CURVE",
"473 678 OFFCURVE",
"474 679 OFFCURVE",
"476 678 CURVE",
"496 672 OFFCURVE",
"497 670 OFFCURVE",
"511 654 CURVE",
"513 652 OFFCURVE",
"518 650 OFFCURVE",
"516 647 CURVE",
"513 642 OFFCURVE",
"508 637 OFFCURVE",
"505 632 CURVE",
"498 627 OFFCURVE",
"502 617 OFFCURVE",
"501 610 CURVE",
"501 600 OFFCURVE",
"501 590 OFFCURVE",
"502 580 CURVE",
"511 578 OFFCURVE",
"517 572 OFFCURVE",
"525 568 CURVE",
"529 565 OFFCURVE",
"531 564 OFFCURVE",
"528 559 CURVE",
"522 550 OFFCURVE",
"529 539 OFFCURVE",
"519 532 CURVE",
"512 525 OFFCURVE",
"503 510 OFFCURVE",
"493 519 CURVE",
"483 527 OFFCURVE",
"472 532 OFFCURVE",
"462 539 CURVE",
"460 541 OFFCURVE",
"467 548 OFFCURVE",
"469 551 CURVE",
"464 555 OFFCURVE",
"457 552 OFFCURVE",
"451 552 CURVE",
"443 551 OFFCURVE",
"434 552 OFFCURVE",
"427 547 CURVE",
"421 547 OFFCURVE",
"408 539 OFFCURVE",
"404 547 CURVE",
"402 553 OFFCURVE",
"397 550 OFFCURVE",
"393 550 CURVE",
"384 550 OFFCURVE",
"376 551 OFFCURVE",
"367 551 CURVE",
"353 548 OFFCURVE",
"338 550 OFFCURVE",
"324 550 CURVE",
"319 550 OFFCURVE",
"310 554 OFFCURVE",
"309 546 CURVE",
"310 512 OFFCURVE",
"312 478 OFFCURVE",
"312 444 CURVE",
"313 332 OFFCURVE",
"316 220 OFFCURVE",
"318 107 CURVE",
"318 106 OFFCURVE",
"317 105 OFFCURVE",
"319 104 CURVE",
"320 104 OFFCURVE",
"320 102 OFFCURVE",
"320 101 CURVE",
"316 69 OFFCURVE",
"321 37 OFFCURVE",
"320 4 CURVE",
"320 0 OFFCURVE",
"320 0 OFFCURVE",
"315 0 CURVE",
"307 -1 OFFCURVE",
"299 0 OFFCURVE",
"291 -1 CURVE",
"263 -3 OFFCURVE",
"235 -2 OFFCURVE",
"207 -2 CURVE",
"203 -2 OFFCURVE",
"198 0 OFFCURVE",
"194 0 CURVE",
"190 -2 OFFCURVE",
"189 3 OFFCURVE",
"192 3 CURVE",
"192 4 OFFCURVE",
"193 4 OFFCURVE",
"194 4 CURVE"
);
}
);
width = 513;
}
);
unicode = "0054,0074";
},
{
glyphname = U;
lastChange = "2023-04-23 03:41:03 +0000";
layers = (
{
layerId = "69FA6F11-E000-4957-8B5E-754D211BB72B";
paths = (
{
closed = 1;
nodes = (
"32 652 OFFCURVE",
"85 651 OFFCURVE",
"112 651 CURVE",
"123 651 OFFCURVE",
"135 514 OFFCURVE",
"150 379 CURVE",
"176 350 OFFCURVE",
"201 316 OFFCURVE",
"265 295 CURVE",
"303 300 OFFCURVE",
"308 461 OFFCURVE",
"324 635 CURVE",
"325 639 OFFCURVE",
"405 643 OFFCURVE",
"431 641 CURVE",
"439 627 OFFCURVE",
"446 553 OFFCURVE",
"439 219 CURVE",
"438 145 OFFCURVE",
"397 79 OFFCURVE",
"372 0 CURVE",
"332 -13 OFFCURVE",
"206 -19 OFFCURVE",
"258 14 CURVE",
"239 28 OFFCURVE",
"147 39 OFFCURVE",
"173 66 CURVE",
"137 79 OFFCURVE",
"50 123 OFFCURVE",
"72 218 CURVE",
"57 296 OFFCURVE",
"20 474 OFFCURVE",
"20 652 CURVE"
);
}
);
width = 462;
}
);
unicode = "0055,0075";
},
{
glyphname = V;
lastChange = "2023-04-18 19:31:45 +0000";
layers = (
{
layerId = "69FA6F11-E000-4957-8B5E-754D211BB72B";
paths = (
{
closed = 1;
nodes = (
"300 172 OFFCURVE",
"302 181 OFFCURVE",
"303 190 CURVE",
"306 201 OFFCURVE",
"310 212 OFFCURVE",
"313 224 CURVE",
"314 231 OFFCURVE",
"320 237 OFFCURVE",
"320 244 CURVE",
"320 247 OFFCURVE",
"320 250 OFFCURVE",
"322 252 CURVE",
"327 259 OFFCURVE",
"325 269 OFFCURVE",
"329 276 CURVE",
"334 286 OFFCURVE",
"337 298 OFFCURVE",
"340 309 CURVE",
"342 318 OFFCURVE",
"347 326 OFFCURVE",
"347 335 CURVE",
"350 342 OFFCURVE",
"354 348 OFFCURVE",
"355 356 CURVE",
"368 395 OFFCURVE",
"378 435 OFFCURVE",
"392 473 CURVE",
"404 512 OFFCURVE",
"416 551 OFFCURVE",
"429 590 CURVE",
"431 595 OFFCURVE",
"432 600 OFFCURVE",
"425 601 CURVE",
"423 605 OFFCURVE",
"417 605 OFFCURVE",
"416 609 CURVE",
"414 614 OFFCURVE",
"413 618 OFFCURVE",
"414 623 CURVE",
"417 628 OFFCURVE",
"415 638 OFFCURVE",
"421 640 CURVE",
"427 641 OFFCURVE",
"434 649 OFFCURVE",
"441 644 CURVE",
"446 639 OFFCURVE",
"446 648 OFFCURVE",
"451 648 CURVE",
"454 649 OFFCURVE",
"456 650 OFFCURVE",
"458 650 CURVE",
"497 652 OFFCURVE",
"536 654 OFFCURVE",
"575 654 CURVE",
"597 654 OFFCURVE",
"563 607 OFFCURVE",
"571 597 CURVE",
"574 592 OFFCURVE",
"577 588 OFFCURVE",
"580 583 CURVE",
"585 578 OFFCURVE",
"585 572 OFFCURVE",
"585 566 CURVE",
"585 559 OFFCURVE",
"576 558 OFFCURVE",
"571 555 CURVE",
"566 553 OFFCURVE",
"561 557 OFFCURVE",
"556 558 CURVE",
"552 553 OFFCURVE",
"552 548 OFFCURVE",
"550 544 CURVE",
"545 535 OFFCURVE",
"560 531 OFFCURVE",
"557 523 CURVE",
"555 518 OFFCURVE",
"556 512 OFFCURVE",
"554 507 CURVE",
"551 506 OFFCURVE",
"550 503 OFFCURVE",
"550 501 CURVE",
"550 501 OFFCURVE",
"549 502 OFFCURVE",
"548 502 CURVE",
"545 493 OFFCURVE",
"541 483 OFFCURVE",
"540 473 CURVE",
"538 459 OFFCURVE",
"522 476 OFFCURVE",
"522 459 CURVE",
"521 450 OFFCURVE",
"517 454 OFFCURVE",
"520 443 CURVE",
"521 437 OFFCURVE",
"512 444 OFFCURVE",
"511 427 CURVE",
"511 421 OFFCURVE",
"508 416 OFFCURVE",
"505 411 CURVE",
"503 406 OFFCURVE",
"503 401 OFFCURVE",
"502 396 CURVE",
"500 392 OFFCURVE",
"496 388 OFFCURVE",
"496 382 CURVE",
"493 374 OFFCURVE",
"491 364 OFFCURVE",
"487 356 CURVE",
"486 346 OFFCURVE",
"480 338 OFFCURVE",
"479 328 CURVE",
"478 324 OFFCURVE",
"475 320 OFFCURVE",
"474 315 CURVE",
"474 310 OFFCURVE",
"472 306 OFFCURVE",
"469 302 CURVE",
"468 296 OFFCURVE",
"465 291 OFFCURVE",
"465 286 CURVE",
"464 279 OFFCURVE",
"453 263 OFFCURVE",
"458 258 CURVE",
"468 249 OFFCURVE",
"479 240 OFFCURVE",
"486 228 CURVE",
"488 213 OFFCURVE",
"487 198 OFFCURVE",
"488 183 CURVE",
"487 176 OFFCURVE",
"494 158 OFFCURVE",
"484 158 CURVE",
"467 156 OFFCURVE",
"450 150 OFFCURVE",
"433 149 CURVE",
"425 150 OFFCURVE",
"425 139 OFFCURVE",
"422 134 CURVE",
"421 131 OFFCURVE",
"418 130 OFFCURVE",
"418 126 CURVE",
"415 120 OFFCURVE",
"413 114 OFFCURVE",
"409 109 CURVE",
"406 106 OFFCURVE",
"409 100 OFFCURVE",
"404 98 CURVE",
"402 97 OFFCURVE",
"400 96 OFFCURVE",
"400 93 CURVE",
"397 89 OFFCURVE",
"397 83 OFFCURVE",
"395 78 CURVE",
"393 71 OFFCURVE",
"390 64 OFFCURVE",
"388 57 CURVE",
"383 43 OFFCURVE",
"379 29 OFFCURVE",
"374 15 CURVE",
"369 6 OFFCURVE",
"369 -2 OFFCURVE",
"356 -1 CURVE",
"319 -5 OFFCURVE",
"281 -3 OFFCURVE",
"243 -3 CURVE",
"239 -3 OFFCURVE",
"233 -2 OFFCURVE",
"231 2 CURVE",
"218 28 OFFCURVE",
"209 55 OFFCURVE",
"201 82 CURVE",
"196 94 OFFCURVE",
"190 106 OFFCURVE",
"187 119 CURVE",
"183 124 OFFCURVE",
"184 130 OFFCURVE",
"181 135 CURVE",
"178 140 OFFCURVE",
"178 147 OFFCURVE",
"176 152 CURVE",
"168 163 OFFCURVE",
"168 176 OFFCURVE",
"161 187 CURVE",
"150 220 OFFCURVE",
"137 252 OFFCURVE",
"126 284 CURVE",
"118 305 OFFCURVE",
"108 327 OFFCURVE",
"103 349 CURVE",
"97 354 OFFCURVE",
"92 387 OFFCURVE",
"84 385 CURVE",
"70 381 OFFCURVE",
"72 388 OFFCURVE",
"66 398 CURVE",
"48 424 OFFCURVE",
"66 417 OFFCURVE",
"68 438 CURVE",
"57 471 OFFCURVE",
"44 503 OFFCURVE",
"33 536 CURVE",
"28 545 OFFCURVE",
"25 556 OFFCURVE",
"20 565 CURVE",
"20 572 OFFCURVE",
"16 577 OFFCURVE",
"15 584 CURVE",
"8 599 OFFCURVE",
"5 618 OFFCURVE",
"0 634 CURVE",
"0 635 OFFCURVE",
"-1 636 OFFCURVE",
"-2 636 CURVE",
"-5 638 OFFCURVE",
"-4 640 OFFCURVE",
"-4 643 CURVE",
"-4 645 OFFCURVE",
"-3 647 OFFCURVE",
"0 647 CURVE",
"16 651 OFFCURVE",
"32 649 OFFCURVE",
"49 650 CURVE",
"74 650 OFFCURVE",
"100 653 OFFCURVE",
"125 649 CURVE",
"130 644 OFFCURVE",
"132 635 OFFCURVE",
"135 629 CURVE",
"140 612 OFFCURVE",
"144 591 OFFCURVE",
"151 576 CURVE",
"151 569 OFFCURVE",
"155 564 OFFCURVE",
"157 558 CURVE",
"163 539 OFFCURVE",
"170 521 OFFCURVE",
"175 502 CURVE",
"179 488 OFFCURVE",
"186 476 OFFCURVE",
"190 463 CURVE",
"197 444 OFFCURVE",
"203 424 OFFCURVE",
"211 405 CURVE",
"213 401 OFFCURVE",
"212 398 OFFCURVE",
"213 394 CURVE",
"215 390 OFFCURVE",
"216 386 OFFCURVE",
"218 382 CURVE",
"223 371 OFFCURVE",
"225 358 OFFCURVE",
"231 346 CURVE",
"237 324 OFFCURVE",
"246 302 OFFCURVE",
"253 280 CURVE",
"255 273 OFFCURVE",
"257 266 OFFCURVE",
"260 259 CURVE",
"262 254 OFFCURVE",
"266 250 OFFCURVE",
"266 244 CURVE",
"266 243 OFFCURVE",
"267 242 OFFCURVE",
"267 242 CURVE",
"270 242 OFFCURVE",
"270 240 OFFCURVE",
"270 237 CURVE",
"271 223 OFFCURVE",
"279 209 OFFCURVE",
"283 195 CURVE",
"286 189 OFFCURVE",
"286 161 OFFCURVE",
"296 164 CURVE"
);
}
);
width = 597;
}
);
unicode = "0056,0076";
},
{
glyphname = W;
lastChange = "2023-04-23 03:42:09 +0000";
layers = (
{
layerId = "69FA6F11-E000-4957-8B5E-754D211BB72B";
paths = (
{
closed = 1;
nodes = (
"36 636 LINE",
"48 636 OFFCURVE",
"69 624 OFFCURVE",
"114 606 CURVE",
"136 597 OFFCURVE",
"171 601 OFFCURVE",
"190 602 CURVE",
"206 590 OFFCURVE",
"216 579 OFFCURVE",
"219 540 CURVE",
"222 491 OFFCURVE",
"224 435 OFFCURVE",
"234 455 CURVE",
"247 483 OFFCURVE",
"252 490 OFFCURVE",
"263 547 CURVE",
"269 576 OFFCURVE",
"288 600 OFFCURVE",
"296 649 CURVE",
"349 656 OFFCURVE",
"402 653 OFFCURVE",
"436 484 CURVE",
"443 444 OFFCURVE",
"448 405 OFFCURVE",
"456 372 CURVE",
"476 375 OFFCURVE",
"495 420 OFFCURVE",
"497 480 CURVE",
"499 528 OFFCURVE",
"492 538 OFFCURVE",
"487 627 CURVE",
"518 642 LINE",
"540 634 OFFCURVE",
"609 626 OFFCURVE",
"605 608 CURVE",
"601 585 OFFCURVE",
"557 520 OFFCURVE",
"528 268 CURVE",
"516 165 OFFCURVE",
"476 99 OFFCURVE",
"461 7 CURVE",
"451 -2 OFFCURVE",
"425 -4 OFFCURVE",
"398 -3 CURVE",
"369 -2 OFFCURVE",
"344 14 OFFCURVE",
"331 60 CURVE",
"327 72 OFFCURVE",
"326 87 OFFCURVE",
"318 140 CURVE",
"315 155 OFFCURVE",
"308 177 OFFCURVE",
"302 203 CURVE",
"291 209 OFFCURVE",
"275 174 OFFCURVE",
"264 135 CURVE",
"253 96 OFFCURVE",
"234 53 OFFCURVE",
"223 0 CURVE",
"215 -9 OFFCURVE",
"196 -18 OFFCURVE",
"168 -16 CURVE",
"156 -15 OFFCURVE",
"133 -3 OFFCURVE",
"101 10 CURVE",
"85 17 OFFCURVE",
"41 34 OFFCURVE",
"34 62 CURVE",
"28 84 OFFCURVE",
"15 330 OFFCURVE",
"22 184 CURVE",
"22 176 OFFCURVE",
"20 338 OFFCURVE",
"40 552 CURVE",
"42 574 OFFCURVE",
"72 588 OFFCURVE",
"96 594 CURVE"
);
}
);
width = 625;
}
);
unicode = "0057,0077";
},
{
glyphname = X;
lastChange = "2023-04-18 19:31:45 +0000";
layers = (
{
layerId = "69FA6F11-E000-4957-8B5E-754D211BB72B";
paths = (
{
closed = 1;
nodes = (
"295 73 OFFCURVE",
"279 72 OFFCURVE",
"263 70 CURVE",
"256 68 OFFCURVE",
"248 65 OFFCURVE",
"241 69 CURVE",
"237 72 OFFCURVE",
"229 70 OFFCURVE",
"230 77 CURVE",
"229 98 OFFCURVE",
"239 87 OFFCURVE",
"240 96 CURVE",
"239 100 OFFCURVE",
"234 97 OFFCURVE",
"233 104 CURVE",
"230 108 OFFCURVE",
"223 152 OFFCURVE",
"218 144 CURVE",
"204 127 OFFCURVE",
"195 107 OFFCURVE",
"182 90 CURVE",
"179 86 OFFCURVE",
"177 81 OFFCURVE",
"174 77 CURVE",
"171 74 OFFCURVE",
"167 70 OFFCURVE",
"166 65 CURVE",
"160 53 OFFCURVE",
"152 41 OFFCURVE",
"145 30 CURVE",
"141 26 OFFCURVE",
"139 21 OFFCURVE",
"137 16 CURVE",
"134 14 OFFCURVE",
"132 11 OFFCURVE",
"129 9 CURVE",
"125 4 OFFCURVE",
"124 -2 OFFCURVE",
"117 -2 CURVE",
"106 -3 OFFCURVE",
"94 -3 OFFCURVE",
"83 -2 CURVE",
"60 -3 OFFCURVE",
"37 -2 OFFCURVE",
"13 -1 CURVE",
"4 -1 OFFCURVE",
"-6 -1 OFFCURVE",
"-15 0 CURVE",
"-20 0 OFFCURVE",
"-22 3 OFFCURVE",
"-20 7 CURVE",
"-7 30 OFFCURVE",
"9 52 OFFCURVE",
"22 75 CURVE",
"52 120 OFFCURVE",
"81 165 OFFCURVE",
"111 210 CURVE",
"122 226 OFFCURVE",
"132 242 OFFCURVE",
"143 257 CURVE",
"144 273 OFFCURVE",
"146 289 OFFCURVE",
"150 304 CURVE",
"151 309 OFFCURVE",
"168 304 OFFCURVE",
"174 305 CURVE",
"179 306 OFFCURVE",
"180 314 OFFCURVE",
"176 317 CURVE",
"168 326 OFFCURVE",
"162 337 OFFCURVE",
"156 346 CURVE",
"152 352 OFFCURVE",
"148 357 OFFCURVE",
"146 363 CURVE",
"143 376 OFFCURVE",
"113 374 OFFCURVE",
"115 386 CURVE",
"116 390 OFFCURVE",
"117 394 OFFCURVE",
"118 397 CURVE",
"122 409 OFFCURVE",
"105 423 OFFCURVE",
"100 433 CURVE",
"95 443 OFFCURVE",
"88 452 OFFCURVE",
"83 461 CURVE",
"81 471 OFFCURVE",
"72 479 OFFCURVE",
"67 487 CURVE",
"62 495 OFFCURVE",
"56 502 OFFCURVE",
"53 510 CURVE",
"47 515 OFFCURVE",
"46 524 OFFCURVE",
"40 530 CURVE",
"36 533 OFFCURVE",
"33 537 OFFCURVE",
"32 541 CURVE",
"27 548 OFFCURVE",
"20 553 OFFCURVE",
"14 558 CURVE",
"11 560 OFFCURVE",
"10 564 OFFCURVE",
"13 567 CURVE",
"15 569 OFFCURVE",
"15 570 OFFCURVE",
"14 572 CURVE",
"11 577 OFFCURVE",
"8 582 OFFCURVE",
"5 586 CURVE",
"1 591 OFFCURVE",
"-5 595 OFFCURVE",
"-7 601 CURVE",
"-9 604 OFFCURVE",
"-11 605 OFFCURVE",
"-12 608 CURVE",
"-14 613 OFFCURVE",
"-20 616 OFFCURVE",
"-23 621 CURVE",
"-25 623 OFFCURVE",
"-26 625 OFFCURVE",
"-25 628 CURVE",
"-24 630 OFFCURVE",
"-25 632 OFFCURVE",
"-26 633 CURVE",
"-33 643 OFFCURVE",
"-37 652 OFFCURVE",
"-20 651 CURVE",
"9 652 OFFCURVE",
"39 652 OFFCURVE",
"68 651 CURVE",
"83 650 OFFCURVE",
"100 654 OFFCURVE",
"114 648 CURVE",
"124 644 OFFCURVE",
"131 625 OFFCURVE",
"138 617 CURVE",
"153 591 OFFCURVE",
"171 566 OFFCURVE",
"186 539 CURVE",
"189 536 OFFCURVE",
"191 526 OFFCURVE",
"196 532 CURVE",
"202 536 OFFCURVE",
"203 545 OFFCURVE",
"210 546 CURVE",
"224 539 OFFCURVE",
"242 535 OFFCURVE",
"249 520 CURVE",
"252 515 OFFCURVE",
"254 510 OFFCURVE",
"256 504 CURVE",
"257 502 OFFCURVE",
"257 502 OFFCURVE",
"255 500 CURVE",
"247 492 OFFCURVE",
"240 485 OFFCURVE",
"234 476 CURVE",
"232 474 OFFCURVE",
"231 473 OFFCURVE",
"229 473 CURVE",
"227 469 OFFCURVE",
"235 465 OFFCURVE",
"236 460 CURVE",
"243 449 OFFCURVE",
"249 436 OFFCURVE",
"256 425 CURVE",
"259 417 OFFCURVE",
"268 443 OFFCURVE",
"271 445 CURVE",
"272 446 OFFCURVE",
"272 447 OFFCURVE",
"272 447 CURVE",
"272 449 OFFCURVE",
"273 450 OFFCURVE",
"274 451 CURVE",
"277 453 OFFCURVE",
"278 456 OFFCURVE",
"279 459 CURVE",
"280 464 OFFCURVE",
"286 467 OFFCURVE",
"287 472 CURVE",
"296 484 OFFCURVE",
"302 497 OFFCURVE",
"311 509 CURVE",
"316 516 OFFCURVE",
"321 523 OFFCURVE",
"324 531 CURVE",
"325 534 OFFCURVE",
"330 536 OFFCURVE",
"330 539 CURVE",
"332 543 OFFCURVE",
"335 547 OFFCURVE",
"337 551 CURVE",
"339 555 OFFCURVE",
"343 558 OFFCURVE",
"344 562 CURVE",
"351 575 OFFCURVE",
"362 587 OFFCURVE",
"368 601 CURVE",
"370 605 OFFCURVE",
"375 609 OFFCURVE",
"377 613 CURVE",
"384 623 OFFCURVE",
"393 647 OFFCURVE",
"406 650 CURVE",
"418 650 OFFCURVE",
"430 651 OFFCURVE",
"442 652 CURVE",
"470 651 OFFCURVE",
"497 653 OFFCURVE",
"524 651 CURVE",
"531 651 OFFCURVE",
"542 654 OFFCURVE",
"548 650 CURVE",
"553 647 OFFCURVE",
"553 646 OFFCURVE",
"550 642 CURVE",
"548 638 OFFCURVE",
"545 635 OFFCURVE",
"543 631 CURVE",
"546 628 OFFCURVE",
"550 628 OFFCURVE",
"554 627 CURVE",
"561 623 OFFCURVE",
"560 612 OFFCURVE",
"562 605 CURVE",
"562 604 OFFCURVE",
"562 603 OFFCURVE",
"562 603 CURVE",
"560 601 OFFCURVE",
"560 599 OFFCURVE",
"559 597 CURVE",
"558 592 OFFCURVE",
"552 596 OFFCURVE",
"550 591 CURVE",
"548 589 OFFCURVE",
"545 588 OFFCURVE",
"544 585 CURVE",
"544 585 OFFCURVE",
"543 585 OFFCURVE",
"542 585 CURVE",
"540 585 OFFCURVE",
"535 585 OFFCURVE",
"535 588 CURVE",
"534 592 OFFCURVE",
"528 593 OFFCURVE",
"525 595 CURVE",
"517 597 OFFCURVE",
"514 588 OFFCURVE",
"516 581 CURVE",
"518 574 OFFCURVE",
"521 566 OFFCURVE",
"518 559 CURVE",
"514 552 OFFCURVE",
"513 542 OFFCURVE",
"507 538 CURVE",
"500 533 OFFCURVE",
"491 537 OFFCURVE",
"483 536 CURVE",
"477 533 OFFCURVE",
"475 525 OFFCURVE",
"471 521 CURVE",
"463 510 OFFCURVE",
"456 498 OFFCURVE",
"448 487 CURVE",
"447 485 OFFCURVE",
"447 484 OFFCURVE",
"450 484 CURVE",
"458 483 OFFCURVE",
"463 488 OFFCURVE",
"470 491 CURVE",
"482 494 OFFCURVE",
"483 507 OFFCURVE",
"487 517 CURVE",
"489 519 OFFCURVE",
"488 524 OFFCURVE",
"492 525 CURVE",
"494 525 OFFCURVE",
"497 526 OFFCURVE",
"499 524 CURVE",
"515 524 OFFCURVE",
"530 520 OFFCURVE",
"546 520 CURVE",
"551 522 OFFCURVE",
"554 525 OFFCURVE",
"559 522 CURVE",
"569 517 OFFCURVE",
"579 512 OFFCURVE",
"588 508 CURVE",
"592 501 OFFCURVE",
"596 503 OFFCURVE",
"598 494 CURVE",
"600 489 OFFCURVE",
"601 483 OFFCURVE",
"603 479 CURVE",
"604 475 OFFCURVE",
"608 471 OFFCURVE",
"608 467 CURVE",
"613 431 OFFCURVE",
"631 436 OFFCURVE",
"591 418 CURVE",
"589 417 OFFCURVE",
"589 417 OFFCURVE",
"590 415 CURVE",
"605 385 OFFCURVE",
"598 397 OFFCURVE",
"570 372 CURVE",
"561 366 OFFCURVE",
"552 360 OFFCURVE",
"544 352 CURVE",
"537 346 OFFCURVE",
"529 353 OFFCURVE",
"521 354 CURVE",
"517 354 OFFCURVE",
"512 358 OFFCURVE",
"508 355 CURVE",
"500 345 OFFCURVE",
"494 333 OFFCURVE",
"487 323 CURVE",
"484 320 OFFCURVE",
"481 319 OFFCURVE",
"478 319 CURVE",
"454 320 OFFCURVE",
"431 321 OFFCURVE",
"407 324 CURVE",
"393 331 OFFCURVE",
"386 365 OFFCURVE",
"378 379 CURVE",
"367 366 OFFCURVE",
"358 352 OFFCURVE",
"350 337 CURVE",
"347 331 OFFCURVE",
"333 321 OFFCURVE",
"334 314 CURVE",
"355 279 OFFCURVE",
"381 245 OFFCURVE",
"401 208 CURVE",
"407 202 OFFCURVE",
"411 193 OFFCURVE",
"417 185 CURVE",
"422 178 OFFCURVE",
"424 169 OFFCURVE",
"431 163 CURVE",
"433 160 OFFCURVE",
"434 154 OFFCURVE",
"438 156 CURVE",
"444 158 OFFCURVE",
"447 162 OFFCURVE",
"451 155 CURVE",
"460 147 OFFCURVE",
"444 141 OFFCURVE",
"450 139 CURVE",
"456 136 OFFCURVE",
"458 132 OFFCURVE",
"458 127 CURVE",
"457 124 OFFCURVE",
"454 124 OFFCURVE",
"457 121 CURVE",
"478 103 OFFCURVE",
"453 110 OFFCURVE",
"484 88 CURVE",
"491 86 OFFCURVE",
"487 79 OFFCURVE",
"493 72 CURVE",
"495 67 OFFCURVE",
"502 70 OFFCURVE",
"501 62 CURVE",
"509 61 OFFCURVE",
"515 56 OFFCURVE",
"521 53 CURVE",
"530 48 OFFCURVE",
"520 39 OFFCURVE",
"520 32 CURVE",
"521 26 OFFCURVE",
"527 32 OFFCURVE",
"529 34 CURVE",
"536 39 OFFCURVE",
"548 30 OFFCURVE",
"557 30 CURVE",
"562 28 OFFCURVE",
"571 27 OFFCURVE",
"571 20 CURVE",
"576 11 OFFCURVE",
"572 -21 OFFCURVE",
"558 -17 CURVE",
"548 -14 OFFCURVE",
"536 -15 OFFCURVE",
"529 -8 CURVE",
"521 -4 OFFCURVE",
"510 -7 OFFCURVE",
"501 -7 CURVE",
"494 -8 OFFCURVE",
"488 -5 OFFCURVE",
"481 -7 CURVE",
"475 -6 OFFCURVE",
"472 -9 OFFCURVE",
"469 -13 CURVE",
"463 -19 OFFCURVE",
"458 -25 OFFCURVE",
"453 -31 CURVE",
"447 -36 OFFCURVE",
"447 -56 OFFCURVE",
"438 -53 CURVE",
"426 -50 OFFCURVE",
"418 -42 OFFCURVE",
"409 -35 CURVE",
"403 -31 OFFCURVE",
"403 -24 OFFCURVE",
"398 -20 CURVE",
"388 -28 OFFCURVE",
"380 -24 OFFCURVE",
"368 -24 CURVE",
"361 -25 OFFCURVE",
"357 -17 OFFCURVE",
"352 -13 CURVE",
"349 -9 OFFCURVE",
"349 -3 OFFCURVE",
"347 2 CURVE",
"344 9 OFFCURVE",
"349 16 OFFCURVE",
"352 22 CURVE",
"344 27 OFFCURVE",
"324 24 OFFCURVE",
"321 33 CURVE",
"317 52 OFFCURVE",
"312 41 OFFCURVE",
"308 51 CURVE",
"306 61 OFFCURVE",
"305 67 OFFCURVE",
"311 75 CURVE"
);
}
);
width = 552;
}
);
unicode = "0058,0078";
},
{
glyphname = Y;
lastChange = "2023-04-23 03:43:14 +0000";
layers = (
{
layerId = "69FA6F11-E000-4957-8B5E-754D211BB72B";
paths = (
{
closed = 1;
nodes = (
"32 644 OFFCURVE",
"143 606 OFFCURVE",
"110 636 CURVE",
"128 650 OFFCURVE",
"188 643 OFFCURVE",
"241 563 CURVE",
"256 541 OFFCURVE",
"274 531 OFFCURVE",
"300 507 CURVE",
"324 534 OFFCURVE",
"384 571 OFFCURVE",
"403 652 CURVE",
"424 659 OFFCURVE",
"450 639 OFFCURVE",
"460 618 CURVE",
"469 599 OFFCURVE",
"485 577 OFFCURVE",
"470 511 CURVE",
"463 474 OFFCURVE",
"422 429 OFFCURVE",
"398 364 CURVE",
"366 343 OFFCURVE",
"329 335 OFFCURVE",
"312 307 CURVE",
"298 238 OFFCURVE",
"287 150 OFFCURVE",
"296 0 CURVE",
"282 -8 OFFCURVE",
"248 -9 OFFCURVE",
"230 -17 CURVE",
"203 -19 OFFCURVE",
"170 -4 OFFCURVE",
"164 41 CURVE",
"158 90 OFFCURVE",
"163 148 OFFCURVE",
"167 341 CURVE",
"142 376 OFFCURVE",
"117 387 OFFCURVE",
"96 456 CURVE",
"84 496 OFFCURVE",
"24 555 OFFCURVE",
"20 636 CURVE"
);
}
);
width = 496;
}
);
unicode = "0059,0079";
},
{
glyphname = Z;
lastChange = "2023-04-18 19:31:45 +0000";
layers = (
{
layerId = "69FA6F11-E000-4957-8B5E-754D211BB72B";
paths = (
{
closed = 1;
nodes = (
"18 69 OFFCURVE",
"19 82 OFFCURVE",
"17 96 CURVE",
"17 99 OFFCURVE",
"16 101 OFFCURVE",
"13 101 CURVE",
"-11 107 OFFCURVE",
"4 124 OFFCURVE",
"15 135 CURVE",
"19 139 OFFCURVE",
"24 137 OFFCURVE",
"28 135 CURVE",
"35 133 OFFCURVE",
"42 145 OFFCURVE",
"45 150 CURVE",
"49 155 OFFCURVE",
"55 159 OFFCURVE",
"58 165 CURVE",
"70 183 OFFCURVE",
"86 201 OFFCURVE",
"100 219 CURVE",
"105 222 OFFCURVE",
"107 228 OFFCURVE",
"111 233 CURVE",
"121 244 OFFCURVE",
"130 256 OFFCURVE",
"139 268 CURVE",
"182 322 OFFCURVE",
"227 376 OFFCURVE",
"269 431 CURVE",
"299 467 OFFCURVE",
"325 506 OFFCURVE",
"358 540 CURVE",
"360 542 OFFCURVE",
"361 547 OFFCURVE",
"358 549 CURVE",
"356 550 OFFCURVE",
"350 555 OFFCURVE",
"348 551 CURVE",
"345 546 OFFCURVE",
"338 550 OFFCURVE",
"333 547 CURVE",
"268 548 OFFCURVE",
"202 546 OFFCURVE",
"136 546 CURVE",
"116 546 OFFCURVE",
"95 546 OFFCURVE",
"74 547 CURVE",
"68 547 OFFCURVE",
"61 546 OFFCURVE",
"56 550 CURVE",
"49 559 OFFCURVE",
"53 574 OFFCURVE",
"51 585 CURVE",
"51 594 OFFCURVE",
"53 602 OFFCURVE",
"50 611 CURVE",
"51 622 OFFCURVE",
"52 634 OFFCURVE",
"51 645 CURVE",
"49 655 OFFCURVE",
"75 648 OFFCURVE",
"81 650 CURVE",
"180 652 OFFCURVE",
"280 652 OFFCURVE",
"379 653 CURVE",
"413 653 OFFCURVE",
"448 655 OFFCURVE",
"482 654 CURVE",
"495 655 OFFCURVE",
"508 655 OFFCURVE",
"521 654 CURVE",
"525 654 OFFCURVE",
"522 648 OFFCURVE",
"525 646 CURVE",
"526 632 OFFCURVE",
"524 618 OFFCURVE",
"525 604 CURVE",
"524 590 OFFCURVE",
"529 558 OFFCURVE",
"518 550 CURVE",
"514 547 OFFCURVE",
"514 540 OFFCURVE",
"510 537 CURVE",
"502 531 OFFCURVE",
"498 522 OFFCURVE",
"491 515 CURVE",
"487 506 OFFCURVE",
"478 500 OFFCURVE",
"473 491 CURVE",
"464 479 OFFCURVE",
"455 468 OFFCURVE",
"446 456 CURVE",
"393 390 OFFCURVE",
"341 321 OFFCURVE",
"287 255 CURVE",
"284 250 OFFCURVE",
"280 246 OFFCURVE",
"276 241 CURVE",
"270 235 OFFCURVE",
"265 227 OFFCURVE",
"258 220 CURVE",
"251 208 OFFCURVE",
"242 198 OFFCURVE",
"233 187 CURVE",
"212 162 OFFCURVE",
"194 136 OFFCURVE",
"171 112 CURVE",
"167 108 OFFCURVE",
"166 98 OFFCURVE",
"174 98 CURVE",
"182 100 OFFCURVE",
"190 98 OFFCURVE",
"198 98 CURVE",
"211 102 OFFCURVE",
"225 99 OFFCURVE",
"238 99 CURVE",
"241 99 OFFCURVE",
"243 100 OFFCURVE",
"246 99 CURVE",
"249 98 OFFCURVE",
"253 99 OFFCURVE",
"256 100 CURVE",
"262 101 OFFCURVE",
"269 99 OFFCURVE",
"275 100 CURVE",
"285 100 OFFCURVE",
"294 100 OFFCURVE",
"303 100 CURVE",
"314 101 OFFCURVE",
"324 100 OFFCURVE",
"334 101 CURVE",
"344 99 OFFCURVE",
"354 100 OFFCURVE",
"364 101 CURVE",
"373 99 OFFCURVE",
"383 104 OFFCURVE",
"392 101 CURVE",
"403 100 OFFCURVE",
"415 104 OFFCURVE",
"425 101 CURVE",
"428 100 OFFCURVE",
"430 101 OFFCURVE",
"431 101 CURVE",
"434 103 OFFCURVE",
"437 101 OFFCURVE",
"440 102 CURVE",
"445 104 OFFCURVE",
"451 102 OFFCURVE",
"456 101 CURVE",
"460 99 OFFCURVE",
"464 102 OFFCURVE",
"468 102 CURVE",
"486 100 OFFCURVE",
"505 103 OFFCURVE",
"524 101 CURVE",
"529 101 OFFCURVE",
"541 104 OFFCURVE",
"542 98 CURVE",
"545 67 OFFCURVE",
"544 36 OFFCURVE",
"544 5 CURVE",
"545 -5 OFFCURVE",
"511 1 OFFCURVE",
"503 -1 CURVE",
"450 0 OFFCURVE",
"396 -1 OFFCURVE",
"343 -1 CURVE",
"327 -1 OFFCURVE",
"312 -1 OFFCURVE",
"297 -1 CURVE",
"275 -1 OFFCURVE",
"267 1 OFFCURVE",
"247 -10 CURVE",
"243 -12 OFFCURVE",
"240 -15 OFFCURVE",
"236 -13 CURVE",
"225 -9 OFFCURVE",
"214 -5 OFFCURVE",
"204 -2 CURVE",
"191 -1 OFFCURVE",
"178 -1 OFFCURVE",
"166 -2 CURVE",
"119 -1 OFFCURVE",
"72 -2 OFFCURVE",
"25 -3 CURVE",
"16 -4 OFFCURVE",
"19 8 OFFCURVE",
"18 14 CURVE",
"14 27 OFFCURVE",
"18 42 OFFCURVE",
"18 55 CURVE"
);
}
);
width = 544;
}
);
unicode = "005A,007A";
},
{
glyphname = period;
lastChange = "2023-04-18 19:31:45 +0000";
layers = (
{
layerId = "69FA6F11-E000-4957-8B5E-754D211BB72B";
paths = (
{
closed = 1;
nodes = (
"48 0 LINE",
"185 0 LINE",
"185 137 LINE",
"48 137 LINE"
);
}
);
width = 233;
}
);
unicode = 002E;
},
{
glyphname = comma;
lastChange = "2023-04-18 19:31:45 +0000";
layers = (
{
layerId = "69FA6F11-E000-4957-8B5E-754D211BB72B";
paths = (
{
closed = 1;
nodes = (
"59 137 LINE",
"59 0 LINE",
"126 0 LINE",
"126 -1 LINE",
"125 -28 OFFCURVE",
"119 -50 OFFCURVE",
"107 -66 CURVE",
"95 -82 OFFCURVE",
"76 -94 OFFCURVE",
"48 -104 CURVE",
"75 -160 LINE",
"104 -150 OFFCURVE",
"128 -135 OFFCURVE",
"147 -117 CURVE",
"203 -64 OFFCURVE",
"204 -7 OFFCURVE",
"204 39 CURVE",
"204 137 LINE"
);
}
);
width = 252;
}
);
unicode = 002C;
},
{
glyphname = exclam;
lastChange = "2023-04-18 19:31:45 +0000";
layers = (
{
layerId = "69FA6F11-E000-4957-8B5E-754D211BB72B";
paths = (
{
closed = 1;
nodes = (
"72 653 LINE",
"72 483 LINE",
"96 185 LINE",
"183 185 LINE",
"207 483 LINE",
"207 653 LINE"
);
},
{
closed = 1;
nodes = (
"72 0 LINE",
"209 0 LINE",
"209 137 LINE",
"72 137 LINE"
);
}
);
width = 281;
}
);
unicode = 0021;
},
{
glyphname = question;
lastChange = "2023-04-18 19:31:45 +0000";
layers = (
{
layerId = "69FA6F11-E000-4957-8B5E-754D211BB72B";
paths = (
{
closed = 1;
nodes = (
"204 0 LINE",
"341 0 LINE",
"341 137 LINE",
"204 137 LINE"
);
},
{
closed = 1;
nodes = (
"331 184 LINE",
"331 265 OFFCURVE",
"370 294 OFFCURVE",
"412 324 CURVE",
"436 342 OFFCURVE",
"461 360 OFFCURVE",
"479 389 CURVE",
"497 416 OFFCURVE",
"505 445 OFFCURVE",
"505 475 CURVE",
"505 596 OFFCURVE",
"380 665 OFFCURVE",
"272 665 CURVE",
"150 665 OFFCURVE",
"40 584 OFFCURVE",
"32 455 CURVE",
"150 440 LINE",
"164 504 OFFCURVE",
"207 560 OFFCURVE",
"277 560 CURVE",
"329 560 OFFCURVE",
"372 533 OFFCURVE",
"372 479 CURVE",
"372 426 OFFCURVE",
"340 403 OFFCURVE",
"305 375 CURVE",
"259 340 OFFCURVE",
"206 300 OFFCURVE",
"206 184 CURVE"
);
}
);
width = 569;
}
);
unicode = 003F;
},
{
glyphname = hyphen;
lastChange = "2023-04-18 19:31:45 +0000";
layers = (
{
layerId = "69FA6F11-E000-4957-8B5E-754D211BB72B";
paths = (
{
closed = 1;
nodes = (
"48 163 LINE",
"308 163 LINE",
"308 277 LINE",
"48 277 LINE"
);
}
);
width = 356;
}
);
unicode = 002D;
},
{
glyphname = quoteleft;
lastChange = "2023-04-19 02:36:00 +0000";
layers = (
{
layerId = "69FA6F11-E000-4957-8B5E-754D211BB72B";
paths = (
{
closed = 1;
nodes = (
"185 353 LINE",
"185 490 LINE",
"118 490 LINE",
"118 491 LINE",
"119 518 OFFCURVE",
"125 540 OFFCURVE",
"137 556 CURVE",
"149 572 OFFCURVE",
"168 584 OFFCURVE",
"196 594 CURVE",
"169 650 LINE",
"140 640 OFFCURVE",
"116 625 OFFCURVE",
"97 607 CURVE",
"41 554 OFFCURVE",
"40 497 OFFCURVE",
"40 451 CURVE",
"40 353 LINE"
);
}
);
width = 244;
}
);
unicode = 2018;
},
{
glyphname = quoteright;
lastChange = "2023-04-19 02:35:41 +0000";
layers = (
{
layerId = "69FA6F11-E000-4957-8B5E-754D211BB72B";
paths = (
{
closed = 1;
nodes = (
"59 650 LINE",
"59 513 LINE",
"126 513 LINE",
"126 512 LINE",
"125 485 OFFCURVE",
"119 463 OFFCURVE",
"107 447 CURVE",
"95 431 OFFCURVE",
"76 419 OFFCURVE",
"48 409 CURVE",
"75 353 LINE",
"104 363 OFFCURVE",
"128 378 OFFCURVE",
"147 396 CURVE",
"203 449 OFFCURVE",
"204 506 OFFCURVE",
"204 552 CURVE",
"204 650 LINE"
);
}
);
width = 244;
}
);
unicode = 2019;
},
{
glyphname = quotesingle;
lastChange = "2023-04-18 19:31:45 +0000";
layers = (
{
layerId = "69FA6F11-E000-4957-8B5E-754D211BB72B";
paths = (
{
closed = 1;
nodes = (
"59 650 LINE",
"59 513 LINE",
"126 513 LINE",
"126 512 LINE",
"125 485 OFFCURVE",
"119 463 OFFCURVE",
"107 447 CURVE",
"95 431 OFFCURVE",
"76 419 OFFCURVE",
"48 409 CURVE",
"75 353 LINE",
"104 363 OFFCURVE",
"128 378 OFFCURVE",
"147 396 CURVE",
"203 449 OFFCURVE",
"204 506 OFFCURVE",
"204 552 CURVE",
"204 650 LINE"
);
}
